<svg width="112" height="32" viewBox="0 0 112 32" fill="none" xmlns="http://www.w3.org/2000/svg">
<path d="M90.3752 5.39155C91.8231 5.39155 92.9459 4.24615 92.9459 2.80707C92.9459 1.39735 91.8231 0.251953 90.3752 0.251953C88.9569 0.251953 87.7749 1.39735 87.7749 2.80707C87.7454 4.24615 88.9569 5.39155 90.3752 5.39155Z" fill="white"/>
<path d="M68.2139 7.183H72.0847V9.53253C73.0598 8.12281 75.2169 6.83057 77.758 6.83057C82.5744 6.83057 86.2385 10.9129 86.2385 15.935C86.2385 20.9278 82.5744 25.0394 77.758 25.0394C75.2169 25.0394 73.0894 23.7472 72.0847 22.3375V31.9999H68.2139V7.183ZM77.0489 10.3255C73.9167 10.3255 71.7597 12.7631 71.7597 15.935C71.7597 19.0775 73.9167 21.5445 77.0489 21.5445C80.1515 21.5445 82.3085 19.1069 82.3085 15.935C82.3085 12.7925 80.1515 10.3255 77.0489 10.3255Z" fill="white"/>
<path d="M95.1621 7.183H99.033V9.5619C100.097 7.79975 102.106 6.83057 104.381 6.83057C108.459 6.83057 111.118 9.70874 111.118 14.1435V24.687H107.247V14.7896C107.247 12.0289 105.829 10.3549 103.583 10.3549C101.013 10.3549 99.033 12.352 99.033 16.0818V24.687H95.1621V7.183Z" fill="white"/>
<path d="M38.724 6.83064C36.4488 6.83064 34.4395 7.79982 33.3757 9.56197V0.251953H29.5049V24.6871H33.3757V16.0819C33.3757 12.352 35.3555 10.3549 37.9262 10.3549C40.1719 10.3549 41.5902 12.029 41.5902 14.7897V24.6871H45.4611V14.1436C45.4315 9.70881 42.8017 6.83064 38.724 6.83064Z" fill="white"/>
<path d="M92.2664 7.18311H88.3955V24.6871H92.2664V7.18311Z" fill="white"/>
<path d="M56.8373 25.0394C51.6368 25.0394 47.6182 21.0159 47.6182 15.935C47.6182 10.8541 51.6368 6.83057 56.8373 6.83057C62.0379 6.83057 66.0565 10.8541 66.0565 15.935C66.0565 21.0159 62.0379 25.0394 56.8373 25.0394ZM56.8373 21.4564C59.9399 21.4564 62.1265 19.0481 62.1265 15.935C62.1265 12.8219 59.9399 10.4136 56.8373 10.4136C53.7052 10.4136 51.5186 12.8219 51.5186 15.935C51.5186 19.0481 53.7052 21.4564 56.8373 21.4564Z" fill="white"/>
<path d="M15.4401 4.95109C15.4105 6.12585 14.5831 7.79989 13.1944 7.79989C12.3375 7.79989 11.6283 7.09503 11.6283 6.24333V6.21396C11.5987 4.83361 10.9782 3.62948 10.0031 2.77777C9.26441 2.16102 8.3484 1.74985 7.34375 1.63237C8.20066 0.751301 9.41215 0.222656 10.7418 0.222656C12.4261 0.222656 13.9626 1.19184 14.8491 2.60156C15.2628 3.30642 15.4696 4.15812 15.4401 4.95109Z" fill="white"/>
<path d="M9.94402 5.06856C10.6827 6.00838 11.126 7.79989 10.0622 8.68097C9.3826 9.23898 8.40749 9.15087 7.84607 8.50475C6.93007 7.47683 5.65948 6.94819 4.38889 6.91882C3.41379 6.88945 2.43869 7.18314 1.61133 7.74116C1.69997 6.53702 2.2614 5.33289 3.2956 4.48118C4.62528 3.39452 6.48684 3.07146 8.08246 3.71758C8.82117 3.98191 9.47124 4.45181 9.94402 5.06856Z" fill="white"/>
<path d="M5.807 8.65159C6.95939 8.88655 8.49592 10.0026 8.25953 11.3536C8.11179 12.2053 7.28443 12.7633 6.42752 12.6164H6.39797C5.03874 12.4108 3.70905 12.822 2.73395 13.615C1.99524 14.2024 1.40427 15.0541 1.13833 16.0232C0.429167 15.0247 0.104133 13.7618 0.310973 12.4402C0.636007 10.7662 1.8475 9.35645 3.50222 8.79844C4.24093 8.56348 5.06829 8.50475 5.807 8.65159Z" fill="white"/>
<path d="M4.95027 14.0554C5.98447 13.4974 7.87558 13.3799 8.55519 14.5547C8.99842 15.2889 8.73248 16.2581 7.99377 16.6986C6.81183 17.4035 6.07311 18.5489 5.80718 19.8118C5.62988 20.7516 5.71853 21.7501 6.16176 22.6606C4.97982 22.3669 3.88652 21.6033 3.23645 20.4579C2.37954 18.9601 2.40909 17.1098 3.29555 15.6413C3.70923 14.9658 4.27065 14.4078 4.95027 14.0554Z" fill="white"/>
<path d="M7.78697 18.7253C8.2302 17.6386 9.58943 16.3464 10.86 16.8163C11.6874 17.11 12.1011 18.0204 11.8056 18.8134C11.3623 20.1056 11.5396 21.4566 12.1602 22.5727C12.6329 23.4244 13.3421 24.0998 14.2581 24.5404C13.1353 25.069 11.8351 25.1865 10.5941 24.7166C8.96891 24.1292 7.78697 22.6901 7.52104 20.9867C7.43239 20.2231 7.52104 19.4302 7.78697 18.7253Z" fill="white"/>
<path d="M12.9873 20.4874C12.6032 19.3713 12.81 17.5211 14.1101 17.0512C14.9375 16.7575 15.824 17.1686 16.1194 17.991C16.6218 19.2539 17.6264 20.1937 18.8379 20.6636C19.7244 21.016 20.7586 21.0747 21.7337 20.8398C21.2313 21.9558 20.2858 22.8663 19.0447 23.3362C17.4196 23.9235 15.558 23.5711 14.2874 22.4257C13.6965 21.8677 13.2237 21.2216 12.9873 20.4874Z" fill="white"/>
<path d="M18.1286 18.5197C17.1239 17.903 16.0602 16.3464 16.7694 15.1717C17.2126 14.4374 18.1581 14.1731 18.9264 14.5843C20.1379 15.2304 21.4971 15.3185 22.7382 14.9073C23.6542 14.5843 24.4815 13.9969 25.0725 13.1746C25.3975 14.3493 25.2793 15.6416 24.5997 16.787C23.7428 18.2848 22.0881 19.1952 20.3743 19.1365C19.5469 19.1365 18.7491 18.9309 18.1286 18.5197Z" fill="white"/>
<path d="M20.7879 13.7325C19.606 13.9087 17.8035 13.3801 17.5671 12.0291C17.3899 11.2067 17.9808 10.3844 18.8377 10.2376H18.8673C20.2265 9.97323 21.3198 9.1509 21.9699 8.06424C22.4722 7.2419 22.7086 6.27272 22.6199 5.27417C23.6246 5.94966 24.3929 7.03632 24.5997 8.32856C24.8952 10.0026 24.2156 11.7647 22.8859 12.822C22.2654 13.2919 21.5267 13.6444 20.7879 13.7325Z" fill="white"/>
<path d="M19.7245 8.38734C18.9267 9.26841 17.2129 10.032 16.1491 9.15094C15.4695 8.59292 15.3809 7.62374 15.9423 6.94825C16.7992 5.89096 17.1242 4.53998 16.9174 3.27711C16.7696 2.3373 16.3264 1.42685 15.6172 0.692624C16.8287 0.575148 18.0993 0.927577 19.1335 1.77928C20.4632 2.86594 21.0837 4.65746 20.7291 6.3315C20.5814 7.0951 20.2268 7.82933 19.7245 8.38734Z" fill="white"/>
</svg>
