<svg width="111" height="32" viewBox="0 0 111 32" fill="none" xmlns="http://www.w3.org/2000/svg">
<path d="M90.2789 5.39155C91.7253 5.39155 92.8469 4.24615 92.8469 2.80707C92.8469 1.39735 91.7253 0.251953 90.2789 0.251953C88.8621 0.251953 87.6814 1.39735 87.6814 2.80707C87.6519 4.24615 88.8621 5.39155 90.2789 5.39155Z" fill="#2C3242"/>
<path d="M68.1411 7.183H72.0079V9.53253C72.9819 8.12281 75.1367 6.83057 77.6751 6.83057C82.4864 6.83057 86.1466 10.9129 86.1466 15.935C86.1466 20.9278 82.4864 25.0394 77.6751 25.0394C75.1367 25.0394 73.0114 23.7472 72.0079 22.3375V31.9999H68.1411V7.183ZM76.9667 10.3255C73.8379 10.3255 71.6832 12.7631 71.6832 15.935C71.6832 19.0775 73.8379 21.5445 76.9667 21.5445C80.066 21.5445 82.2208 19.1069 82.2208 15.935C82.2208 12.7925 80.066 10.3255 76.9667 10.3255Z" fill="#2C3242"/>
<path d="M95.0608 7.183H98.9275V9.5619C99.9901 7.79975 101.997 6.83057 104.27 6.83057C108.343 6.83057 111 9.70874 111 14.1435V24.687H107.133V14.7896C107.133 12.0289 105.716 10.3549 103.473 10.3549C100.905 10.3549 98.9275 12.352 98.9275 16.0818V24.687H95.0608V7.183Z" fill="#2C3242"/>
<path d="M38.683 6.83064C36.4102 6.83064 34.403 7.79982 33.3404 9.56197V0.251953H29.4736V24.6871H33.3404V16.0819C33.3404 12.352 35.318 10.3549 37.886 10.3549C40.1293 10.3549 41.5461 12.029 41.5461 14.7897V24.6871H45.4129V14.1436C45.3834 9.70881 42.7563 6.83064 38.683 6.83064Z" fill="#2C3242"/>
<path d="M92.168 7.18311H88.3013V24.6871H92.168V7.18311Z" fill="#2C3242"/>
<path d="M56.777 25.0394C51.582 25.0394 47.5676 21.0159 47.5676 15.935C47.5676 10.8541 51.582 6.83057 56.777 6.83057C61.972 6.83057 65.9863 10.8541 65.9863 15.935C65.9863 21.0159 61.972 25.0394 56.777 25.0394ZM56.777 21.4564C59.8763 21.4564 62.0605 19.0481 62.0605 15.935C62.0605 12.8219 59.8763 10.4136 56.777 10.4136C53.6482 10.4136 51.4639 12.8219 51.4639 15.935C51.4639 19.0481 53.6482 21.4564 56.777 21.4564Z" fill="#2C3242"/>
<path d="M15.392 4.9329C15.3626 6.10315 14.5378 7.77075 13.1534 7.77075C12.2991 7.77075 11.5922 7.0686 11.5922 6.22017V6.19092C11.5627 4.81588 10.9442 3.61637 9.9721 2.76794C9.2357 2.15356 8.32256 1.74398 7.32104 1.62695C8.17527 0.749268 9.38298 0.222656 10.7085 0.222656C12.3875 0.222656 13.9192 1.18811 14.8029 2.59241C15.2153 3.29456 15.4215 4.14299 15.392 4.9329Z" fill="#175FFF"/>
<path d="M9.91334 5.04989C10.6497 5.98609 11.0916 7.77072 10.0312 8.6484C9.35367 9.20427 8.38162 9.1165 7.82195 8.47287C6.90881 7.4489 5.64219 6.92229 4.37557 6.89303C3.40352 6.86377 2.43146 7.15634 1.60669 7.7122C1.69506 6.5127 2.25473 5.3132 3.28569 4.46477C4.61122 3.38229 6.46696 3.06047 8.0576 3.7041C8.794 3.96741 9.44204 4.43551 9.91334 5.04989Z" fill="#175FFF"/>
<path d="M5.78939 8.6193C6.93819 8.85335 8.46991 9.96509 8.23426 11.3109C8.08698 12.1593 7.26221 12.7152 6.40797 12.5689H6.37852C5.02353 12.3641 3.698 12.7737 2.72595 13.5636C1.98954 14.1487 1.40042 14.9972 1.13531 15.9626C0.428361 14.9679 0.104343 13.7099 0.310537 12.3934C0.634555 10.7257 1.84226 9.32145 3.49181 8.76558C4.22821 8.53153 5.05299 8.47302 5.78939 8.6193Z" fill="#175FFF"/>
<path d="M4.93515 14.0023C5.96612 13.4465 7.85131 13.3294 8.52881 14.4997C8.97065 15.2311 8.70554 16.1965 7.96914 16.6354C6.79089 17.3375 6.05448 18.4785 5.78938 19.7365C5.61264 20.6727 5.70101 21.6674 6.14285 22.5744C4.9646 22.2818 3.87472 21.5212 3.22669 20.3802C2.37246 18.8881 2.40191 17.045 3.2856 15.5822C3.69799 14.9093 4.25766 14.3534 4.93515 14.0023Z" fill="#175FFF"/>
<path d="M7.76284 18.6541C8.20469 17.5716 9.55967 16.2843 10.8263 16.7524C11.6511 17.045 12.0635 17.9519 11.7689 18.7419C11.327 20.0291 11.5038 21.3749 12.1224 22.4867C12.5937 23.3351 13.3006 24.008 14.2138 24.4468C13.0944 24.9734 11.7983 25.0905 10.5612 24.6224C8.94109 24.0372 7.76284 22.6037 7.49774 20.9068C7.40937 20.1462 7.49774 19.3562 7.76284 18.6541Z" fill="#175FFF"/>
<path d="M12.9472 20.4093C12.5643 19.2976 12.7705 17.4544 14.0665 16.9863C14.8913 16.6938 15.775 17.1034 16.0696 17.9225C16.5703 19.1806 17.5718 20.1168 18.7795 20.5849C19.6632 20.9359 20.6942 20.9944 21.6662 20.7604C21.1655 21.8721 20.2229 22.7791 18.9857 23.2472C17.3656 23.8323 15.5099 23.4812 14.2433 22.3402C13.6542 21.7844 13.1829 21.1407 12.9472 20.4093Z" fill="#175FFF"/>
<path d="M18.0726 18.4494C17.0711 17.835 16.0107 16.2844 16.7176 15.1142C17.1595 14.3828 18.1021 14.1195 18.8679 14.5291C20.0756 15.1727 21.4306 15.2605 22.6678 14.8509C23.5809 14.5291 24.4057 13.9439 24.9948 13.1248C25.3188 14.295 25.201 15.5823 24.5235 16.7233C23.6693 18.2153 22.0197 19.1223 20.3113 19.0638C19.4865 19.0638 18.6912 18.859 18.0726 18.4494Z" fill="#175FFF"/>
<path d="M20.7236 13.6804C19.5453 13.856 17.7485 13.3293 17.5129 11.9836C17.3361 11.1644 17.9252 10.3452 18.7795 10.1989H18.8089C20.1639 9.93563 21.2538 9.11646 21.9018 8.03398C22.4026 7.2148 22.6382 6.24935 22.5499 5.25464C23.5514 5.92753 24.3172 7.01001 24.5234 8.29728C24.818 9.96489 24.1405 11.7203 22.815 12.7735C22.1964 13.2416 21.46 13.5927 20.7236 13.6804Z" fill="#175FFF"/>
<path d="M19.6632 8.35595C18.8679 9.23364 17.1594 9.9943 16.099 9.11661C15.4215 8.56075 15.3331 7.59529 15.8928 6.9224C16.747 5.86918 17.071 4.52339 16.8648 3.26538C16.7176 2.32918 16.2757 1.42224 15.5688 0.690831C16.7765 0.573806 18.0431 0.92488 19.0741 1.77331C20.3996 2.85579 21.0182 4.64042 20.6647 6.30802C20.5174 7.06868 20.1639 7.80009 19.6632 8.35595Z" fill="#175FFF"/>
</svg>
