<svg width="14" height="14" viewBox="0 0 14 14" fill="none" xmlns="http://www.w3.org/2000/svg">
<path fill-rule="evenodd" clip-rule="evenodd" d="M6.99992 0.333252C3.31802 0.333252 0.333252 3.31802 0.333252 6.99992C0.333252 10.6818 3.31802 13.6666 6.99992 13.6666C10.6818 13.6666 13.6666 10.6818 13.6666 6.99992C13.6666 5.23181 12.9642 3.53612 11.714 2.28587C10.4637 1.03563 8.76803 0.333252 6.99992 0.333252ZM7.66659 9.33325C7.66659 9.51735 7.51735 9.66659 7.33325 9.66659H6.66659C6.48249 9.66659 6.33325 9.51735 6.33325 9.33325V7.33325C6.33325 7.14916 6.48249 6.99992 6.66659 6.99992H7.33325C7.51735 6.99992 7.66659 7.14916 7.66659 7.33325V9.33325ZM7.33325 5.66658C7.51735 5.66658 7.66659 5.51735 7.66659 5.33325V4.66658C7.66659 4.48249 7.51735 4.33325 7.33325 4.33325H6.66659C6.48249 4.33325 6.33325 4.48249 6.33325 4.66658V5.33325C6.33325 5.51735 6.48249 5.66658 6.66659 5.66658H7.33325Z" fill="#757A8A"/>
</svg>
