<svg width="14" height="14" viewBox="0 0 14 14" fill="none" xmlns="http://www.w3.org/2000/svg">
<path fill-rule="evenodd" clip-rule="evenodd" d="M0.333496 6.99992C0.333496 3.31802 3.31826 0.333252 7.00016 0.333252C8.76827 0.333252 10.464 1.03563 11.7142 2.28587C12.9645 3.53612 13.6668 5.23181 13.6668 6.99992C13.6668 10.6818 10.6821 13.6666 7.00016 13.6666C3.31826 13.6666 0.333496 10.6818 0.333496 6.99992ZM1.66683 6.99992C1.66683 9.94544 4.05464 12.3333 7.00016 12.3333C8.41465 12.3333 9.7712 11.7713 10.7714 10.7712C11.7716 9.77096 12.3335 8.41441 12.3335 6.99992C12.3335 4.0544 9.94568 1.66659 7.00016 1.66659C4.05464 1.66659 1.66683 4.0544 1.66683 6.99992ZM7.66683 7.33325C7.66683 7.14916 7.51759 6.99992 7.3335 6.99992H6.66683C6.48273 6.99992 6.3335 7.14916 6.3335 7.33325V9.33325C6.3335 9.51735 6.48273 9.66659 6.66683 9.66659H7.3335C7.51759 9.66659 7.66683 9.51735 7.66683 9.33325V7.33325ZM7.3335 4.33325C7.51759 4.33325 7.66683 4.48249 7.66683 4.66658V5.33325C7.66683 5.51735 7.51759 5.66658 7.3335 5.66658H6.66683C6.48273 5.66658 6.3335 5.51735 6.3335 5.33325V4.66658C6.3335 4.48249 6.48273 4.33325 6.66683 4.33325H7.3335Z" fill="#757A8A"/>
</svg>
