<svg width="140" height="132" viewBox="0 0 140 132" fill="none" xmlns="http://www.w3.org/2000/svg">
<g clip-path="url(#clip0)">
<path d="M-11.5657 158.114L2.45399 150.847L1.97203 142.23C1.97203 142.23 -0.150711 142.23 -0.53598 140.493C-0.921997 138.758 -0.53598 134.385 1.19998 133.71C2.93671 133.034 5.28357 132.552 5.28357 132.552L8.37099 128.983L13.1936 123.002L17.0846 125.574L9.46384 135.253L9.59276 140.301C9.59276 140.301 9.65723 141.716 8.30652 141.909C6.95583 142.101 5.41249 141.909 5.41249 141.909C5.41249 141.909 6.12007 151.137 5.99115 151.008C5.99115 151.008 9.0141 152.294 11.6825 152.552C14.3195 152.809 14.641 150.686 14.641 150.686L14.3839 139.111C14.3839 139.111 12.5827 138.468 11.5543 137.761C10.5252 137.053 10.9112 136.089 10.9112 136.089C10.7823 136.056 10.6219 135.993 10.493 135.928C15.123 137.375 18.1137 136.764 21.3938 136.024C21.3938 136.153 21.1044 138.564 17.6317 139.207C17.6317 139.207 18.5957 149.368 18.5957 150.429C18.5957 151.49 18.2104 154.706 12.9688 154.802L31.3613 163.805C31.3613 163.805 32.2301 164.673 31.458 165.348C30.6867 166.024 29.7221 166.699 27.3745 165.927C25.0591 165.156 5.86223 155.092 5.86223 155.092L5.66959 166.152C5.66959 166.152 5.47694 167.374 4.4478 167.374C3.41867 167.374 2.06798 167.439 2.06798 165.863C2.06798 164.288 2.55069 154.738 2.55069 154.738L-18.1895 165.863C-18.1895 165.863 -20.0222 166.731 -18.8649 166.924C-17.7076 167.117 -2.01559 168.95 13.6763 168.468C29.3683 167.985 57.3754 164.705 65.0284 162.744C72.6813 160.815 80.6236 159.271 81.7809 159.754C81.7809 159.754 77.408 152.294 76.0573 149.979C76.0573 149.979 67.8902 148.372 59.0154 142.133C58.9832 142.101 58.9187 142.069 58.8865 142.069C58.1789 141.747 51.9734 138.693 46.2175 133.13C40.1079 127.214 38.8539 120.816 38.7572 114.449C38.6605 108.051 44.5453 96.0252 45.7348 93.3243C49.3042 85.093 49.5935 77.5691 48.79 74.7717C47.7286 71.0419 43.6451 70.3666 42.5837 70.2702C37.7925 73.9036 24.416 81.1703 20.9433 82.585C19.2073 83.2924 17.535 83.6461 16.0876 83.6461C14.3517 83.6461 13.001 83.0995 12.4223 82.167C11.361 80.495 11.5544 78.9195 13.001 77.4726C12.615 77.5369 12.1652 77.6012 11.6503 77.6655C11.1683 77.7298 10.5574 77.7942 10.0103 77.7942C7.88826 77.7942 6.69872 76.7974 6.37717 74.7074C5.99115 72.1351 9.88208 69.2412 15.8628 65.1577C16.5704 64.6755 17.2457 64.1932 17.9211 63.743C22.1973 60.7527 27.2133 55.6081 28.178 54.6114C28.6607 51.6533 29.5609 48.1163 32.4227 44.0007C34.6414 40.1101 38.6605 37.8593 41.0403 36.8304C43.0664 31.5572 53.2596 30.7855 57.1498 30.4961C57.6325 30.464 58.0822 30.4318 58.5327 30.4318C66.2824 30.4318 67.8579 35.7372 68.1795 37.9558C70.1088 38.0523 71.7804 38.5346 73.2277 39.3705C77.6973 41.975 78.9514 47.1839 79.2085 51.1066C79.4656 54.7722 79.2407 56.1869 79.2085 56.4763C78.8869 59.4022 78.0834 61.6209 75.0282 64.0002C75.0282 64.0002 76.4756 68.1159 76.6682 71.8779C76.8616 75.6398 76.6682 84.7715 80.045 87.0865C83.421 89.4016 85.6719 90.0768 94.4821 89.4016C103.293 88.7263 110.914 86.8293 119.853 90.0768C125.512 92.1346 127.441 93.3886 127.956 93.7423C128.052 93.8067 128.149 93.871 128.277 93.9031C129.66 94.3533 138.696 97.4722 145.931 102.359C153.776 107.697 164.13 114.095 166.381 114.964C168.6 115.832 164.259 119.24 160.754 119.723C160.754 119.723 160.465 121.073 168.118 123.709C175.771 126.314 178.375 126.7 178.665 128.662C178.954 130.59 175.192 136.989 158.214 140.687C143.873 143.773 131.171 141.651 131.171 141.651C131.171 141.651 122.843 147.664 107.923 150.172L112.489 169.561C112.489 169.561 113.357 171.49 111.139 172.068C108.92 172.647 100.978 174.191 89.1446 174.866C77.3113 175.541 76.5715 174.77 75.0926 174.094C72.9707 173.13 75.1893 171.586 75.1893 171.586C75.1893 171.586 71.8771 171.972 67.2471 171.779C64.739 171.682 62.4881 170.718 62.1988 169.271C61.9087 167.825 68.3077 164.802 68.3077 164.802C68.3077 164.802 57.0861 168.274 29.9469 170.333C2.80779 172.358 -9.0899 171.008 -13.0768 170.525C-17.0644 170.043 -23.8164 169.464 -24.2025 166.86C-24.5562 164.223 -11.5657 158.114 -11.5657 158.114ZM84.2889 158.532C85.3181 160.075 85.5107 160.429 85.5107 160.429L86.5721 160.365C86.5721 160.365 84.1608 152.969 83.0027 151.361C83.0027 151.361 80.9129 151.297 79.8516 150.912C79.8193 150.944 83.2598 156.989 84.2889 158.532ZM92.8421 151.94L96.6686 164.255L99.37 163.902L96.2189 151.78C96.2511 151.812 93.6786 152.101 92.8421 151.94ZM67.4719 167.696C67.4719 167.696 64.8672 168.917 66.6999 169.303C68.5333 169.689 76.8616 169.979 78.2438 169.785C79.5945 169.593 82.424 168.531 82.6489 168.821C82.7778 168.982 82.9382 169.142 83.0349 169.271C82.6489 169.464 82.2636 169.625 81.9099 169.818C79.4333 171.072 78.8224 171.651 78.7265 172.197C78.6298 172.744 79.3696 173.451 83.0349 173.322C86.701 173.162 102.007 172.101 109.467 170.171L104.322 150.654C104.322 150.654 101.46 151.297 99.0484 151.297C99.1451 151.458 101.91 160.075 102.328 161.94C102.778 163.837 103.164 165.188 102.907 165.38C102.65 165.574 101.17 165.477 99.6271 165.38C98.5657 165.316 96.4437 165.606 94.225 166.024L93.7108 165.734C93.7108 165.734 90.077 154.191 89.4339 152.166C89.4339 152.166 87.3441 152.101 86.4754 151.972C86.4754 151.972 89.0801 158.886 89.4339 160.397C89.7877 161.908 90.0125 162.873 89.0801 162.712C88.1477 162.551 84.6105 162.229 83.6136 161.94C82.5852 161.651 80.7518 160.879 77.5684 162.294C74.3851 163.612 67.4719 167.696 67.4719 167.696Z" fill="#151516"/>
<path d="M10.4622 135.928C9.88351 135.671 9.43303 135.252 9.43303 135.252L17.0537 125.574L13.1636 123.002L8.34019 128.983L7.95417 115.832C16.0254 117.214 21.2662 116.057 23.742 115.124C23.9676 120.237 24.2247 125.349 24.3214 127.149C24.514 130.911 24.128 135.477 21.3307 136.056C18.0829 136.763 15.0929 137.407 10.4622 135.928Z" fill="#7692FF"/>
<path d="M31.9021 50.8814C34.4101 44.7079 39.0401 39.8526 44.185 38.1485C49.33 36.4444 57.1119 34.9975 59.5554 40.7851C59.5554 40.7851 71.292 61.0419 72.417 65.5434C73.4784 69.7877 73.6396 76.4113 73.7033 79.4981C73.7033 79.5624 73.9289 81.3309 73.9289 81.3952L74.668 84.5141C73.5107 85.3178 68.9121 86.7005 62.771 86.6362C56.6292 86.5719 54.5072 85.6716 52.3844 83.9996C52.3844 83.7745 52.706 80.8485 52.5134 78.5656C52.3207 76.3792 51.7413 73.5175 50.0053 71.3632C46.6931 67.2476 40.9695 67.0868 40.9695 67.0868C40.9695 67.0868 36.6288 67.6013 33.6058 64.4502C30.5836 61.3313 29.3941 57.0548 31.9021 50.8814Z" fill="#016666"/>
<path d="M28.1796 68.0192C28.1796 68.0192 23.9034 71.8134 22.3601 73.1316C20.8167 74.4499 14.3533 78.9836 14.3211 79.9803C14.3211 80.2054 30.5594 72.5528 30.5594 72.5528C30.5594 72.5528 44.4502 62.8746 44.3865 62.6174C44.322 62.3601 43.8071 60.3988 43.5178 60.3023C43.2284 60.2059 36.6691 60.3988 36.6691 60.3988L28.1796 68.0192Z" fill="#79455B"/>
<path d="M43.5465 62.8104C42.4214 62.9711 36.0869 65.3826 32.3886 68.4051C28.6911 71.4276 22.4203 75.7683 20.5876 76.6365C18.755 77.5046 14.1564 79.4338 14.2531 80.1734C14.3498 80.9129 14.9285 82.1669 19.141 80.4627C23.3535 78.7586 34.318 72.2314 35.8613 71.2025C37.4046 70.1736 45.2188 64.8039 45.2188 64.8039L43.5465 62.8104Z" fill="#C8842C"/>
<path d="M56.0601 50.6241C54.5167 50.3347 49.8215 50.3668 46.2206 53.8716C42.619 57.3763 42.0081 60.1415 42.9728 62.6174C43.9375 65.0932 45.8346 66.9581 49.5644 64.9645C53.2627 62.9711 56.8313 60.5595 57.9894 57.5371C59.1145 54.5147 56.0601 50.6241 56.0601 50.6241Z" fill="#02A484"/>
<path d="M78.1784 56.38C77.8246 59.5311 76.9566 61.6211 73.2913 64.1612C71.619 65.3187 69.8508 66.2512 66.0243 65.9618C62.1978 65.6724 59.4642 63.1001 58.178 60.3028C56.8917 57.5054 54.7375 51.0747 56.3131 45.8979C57.8886 40.689 60.7827 40.0138 62.1978 39.5315C63.6123 39.0492 68.725 37.8274 72.5837 40.0781C76.4424 42.3288 77.8568 46.8625 78.1784 51.1711C78.4362 55.0938 78.1784 56.38 78.1784 56.38Z" fill="#151516"/>
<path d="M71.4257 42.5538C71.4257 42.5538 69.4319 41.2677 65.7658 42.0715C62.1005 42.8753 59.7851 45.4476 59.7851 48.6951C59.7851 51.9426 60.1711 57.6982 63.1618 60.6563C65.5732 63.0357 72.0044 64.2897 74.5768 59.4023C77.1493 54.515 70.8141 50.9138 70.8141 50.9138L71.4257 42.5538Z" fill="#016666"/>
<path d="M52.0717 45.8978C52.5867 44.2902 51.2682 42.2645 47.9237 41.5571C44.58 40.8497 41.1717 41.5571 39.3706 44.676C37.5701 47.7949 40.9461 49.3704 42.9077 49.7884C44.837 50.2064 50.8177 49.7884 52.0717 45.8978Z" fill="#02A484"/>
<path d="M47.4381 51.8784C47.1488 49.5954 45.6377 47.9235 44.1581 47.7627C43.4828 47.6984 42.9363 48.0199 42.5181 48.5344C42.7115 47.9235 43.0008 47.3769 43.4191 46.8945C45.0261 45.094 48.2094 46.5408 49.1426 50.0456C50.1073 53.5825 48.7566 56.3798 47.3737 56.7657C46.7306 56.9265 46.1519 56.9265 45.6692 56.7979C45.7659 56.7657 45.8626 56.7335 45.9908 56.7014C48.0813 55.7368 47.5663 52.7143 47.4381 51.8784Z" fill="#FDFFFF"/>
<path d="M42.552 48.5665C41.9734 50.3671 42.2627 52.5857 42.938 53.9683C43.5812 55.2866 44.4491 56.5084 45.7031 56.8621" fill="#151516"/>
<path d="M42.9402 53.9362C42.2971 52.5536 42.0077 50.335 42.5542 48.5344C42.9724 48.0199 43.5188 47.6662 44.1942 47.7627C45.673 47.9235 47.1526 49.5954 47.4742 51.8784C47.5709 52.7143 48.0851 55.7368 46.0268 56.7335C45.9309 56.7979 45.802 56.83 45.7053 56.83C44.419 56.5085 43.5833 55.2867 42.9402 53.9362Z" fill="#151516"/>
<path d="M11.8745 73.2604C12.8392 72.3279 14.0932 71.2668 13.7072 70.8489C13.4823 70.5917 12.9029 70.5273 12.0671 70.8489C13.8353 69.5949 16.1185 68.0836 18.5628 66.3795C24.0608 62.5532 30.5886 56.444 31.2317 55.9939C33.4504 54.3862 33.8687 56.0903 33.9002 56.9585C33.9324 57.7944 33.9324 58.8555 35.9262 59.7559C37.92 60.6562 40.2032 59.788 41.5531 59.5951C42.9038 59.4022 42.8071 60.4954 42.1325 61.042C39.9138 62.8426 17.0832 73.9035 12.292 74.868C12.1638 74.9002 12.0027 74.9323 11.8745 74.9323C11.6167 74.6108 11.1669 73.9356 11.8745 73.2604Z" fill="#FFCC34"/>
<path d="M8.55825 74.2575C8.42932 73.6144 9.81224 72.4247 12.0631 70.8492C12.8989 70.5276 13.4783 70.5598 13.7032 70.8492C14.0569 71.2993 12.8352 72.3604 11.8705 73.2607C11.1629 73.9359 11.6127 74.6111 11.902 74.9327C9.29805 75.4471 8.81534 75.3507 8.55825 74.2575Z" fill="#C8842C"/>
<path d="M31.7091 61.2993C31.3231 62.2639 29.426 63.325 28.3976 63.0999C27.3685 62.8748 27.8504 61.8137 29.1366 60.5919C30.4229 59.3701 32.4489 59.4022 31.7091 61.2993Z" fill="#C8842C"/>
<path d="M63.4148 57.6019C65.4723 62.2641 68.9127 62.1033 71.839 61.3638C74.9579 60.5922 75.7621 57.5376 75.8588 54.6437C75.9226 53.0682 75.3117 46.6696 73.3186 44.0009C71.3248 41.3642 67.595 42.0395 66.4692 42.3289C65.3441 42.6183 61.1639 44.7082 61.7747 49.7242C62.3856 55.0617 62.6105 55.8334 63.4148 57.6019Z" fill="white"/>
<path d="M66.6868 57.5831L66.5966 55.1513C66.5966 55.1513 69.7091 55.7262 70.7724 54.8201C71.8357 53.914 70.8786 52.7985 69.3144 52.6484C67.7509 52.498 65.7027 52.0951 65.5504 49.1435C65.398 46.192 66.9785 44.7869 71.9168 45.0592L71.8311 47.6809C71.8311 47.6809 67.642 47.0053 67.9023 49.0131C68.1102 50.5319 73.4138 49.0722 73.7266 53.3889C74.1597 58.9485 66.6868 57.5831 66.6868 57.5831Z" fill="#016666"/>
<path d="M74.6752 84.5465C74.6752 84.5465 63.4751 89.5499 52.3917 84.032L51.3948 87.4725C51.3948 87.4725 63.0562 95.9636 75.5117 87.6654L74.6752 84.5465Z" fill="white"/>
<path d="M44.7973 102.488C46.4051 99.0153 51.3888 87.4722 51.3888 87.4722C51.3888 87.4722 54.2829 89.8837 62.1292 90.4625C69.9748 91.0413 75.5058 87.6652 75.5058 87.6652C75.5058 87.6652 75.9555 89.2085 78.3031 90.8162C80.3607 92.1988 86.8885 92.9062 89.0105 92.9062C92.7411 92.9062 104.895 90.3339 114.092 92.0701C120.426 93.2599 129.687 97.3112 134.35 99.4333C139.012 101.555 148.884 107.825 152.517 110.173C156.151 112.52 161.199 115.51 161.199 115.51C160.331 115.8 157.759 116.249 156.344 116.089C154.929 115.929 152.71 115.703 152.035 116.571C151.971 116.668 151.864 116.781 151.864 116.878C151.125 116.235 146.49 113.487 139.995 110.464C133.017 107.249 116.6 100.752 109.879 98.951C103.159 97.1505 91.1655 93.903 78.1105 97.1505C65.0555 100.366 63.6403 105.028 62.3541 106.829C61.0679 108.629 61.582 112.622 62.3541 115.066C63.1254 117.509 62.5326 125.157 56.0692 124.128C49.6057 123.099 49.9422 124.256 49.428 125.22C48.8486 126.314 48.9131 128.371 50.8424 130.462C52.6436 132.391 54.725 134.404 54.1142 135.562C52.6997 134.661 51.0358 133.388 49.524 132.037C44.765 127.76 43.125 123.902 41.9677 118.179C40.8104 112.487 43.1572 106.089 44.7973 102.488Z" fill="#79465B"/>
<path d="M158.694 127.311C160.109 126.733 161.353 125.736 162.06 124.965C162.221 124.804 162.456 124.707 162.553 124.514C163.292 124.707 164.032 124.899 164.804 125.093C166.797 125.961 168.405 126.604 169.82 127.022C173.196 128.05 174.547 127.954 175.318 129.047C176.09 130.141 172.553 132.23 169.627 133.71C166.797 135.124 161.598 137.375 151.308 138.629C149.282 138.372 148.531 138.22 145.862 137.095C142.936 135.873 138.856 134.124 137.762 133.191C141.814 132.291 147.44 130.88 149.08 130.527C151.395 130.012 157.279 127.89 158.694 127.311Z" fill="white"/>
<path d="M152.232 123.099C151.139 123.549 148.888 123.871 147.763 123.742C146.669 123.613 125.865 121.813 120.302 120.977C114.739 120.14 105.061 118.533 100.398 116.379C98.0186 115.286 90.9765 111.202 88.2436 110.43C85.5422 109.658 80.5584 109.723 78.3075 109.723C76.5393 109.723 74.3402 109.177 73.2473 109.21C71.9933 108.534 71.2009 107.665 71.2009 105.864C71.2009 103.485 78.1786 102.199 82.9697 102.038C87.7609 101.909 94.9963 103.196 98.5972 104.353C101.073 105.157 105.497 106.689 107.041 106.56C108.584 106.431 103.868 103.299 102.293 102.238C100.749 101.209 108.662 102.392 115.768 104.707C122.875 107.022 135.544 113.356 139.788 116.057C143.872 118.662 153.1 121.62 157.023 122.874C154.966 122.906 152.779 122.874 152.232 123.099Z" fill="white"/>
<path d="M49.0452 124.449C49.8165 123.742 50.5885 123.163 56.0228 123.871C62.5184 124.706 62.8715 117.536 62.1002 115.092C61.3281 112.649 61.1355 108.372 62.4217 106.315C63.7724 104.128 65.0587 100.366 78.1137 97.1507C91.1687 93.9353 103.709 96.797 110.397 98.694C119.947 101.395 133.131 107.086 140.109 110.334C146.604 113.356 151.202 116.25 151.942 116.893C151.845 117.89 154.16 119.755 157.279 121.459C158.212 121.974 159.337 122.552 160.527 123.131C161.235 123.485 161.974 123.838 162.746 124.192C163.453 124.514 164.161 124.835 164.836 125.125C164.064 124.931 163.325 124.674 162.585 124.545C159.852 123.999 159.08 123.806 157.183 123.291C157.054 123.26 154.289 122.456 154.128 122.423C150.205 121.169 143.935 118.79 139.851 116.186C135.575 113.485 122.938 107.15 115.831 104.835C108.725 102.52 100.847 101.234 102.39 102.263C103.934 103.292 108.854 106.54 107.31 106.668C105.767 106.797 101.136 105.286 98.6605 104.482C95.0589 103.324 87.8242 102.038 83.033 102.167C78.2419 102.295 71.6825 103.581 71.5213 106.058C71.4569 107.504 72.1322 108.533 73.3862 109.176C73.0969 109.176 73.0971 109.328 72.9682 109.488C72.3895 110.196 73.5795 112.43 77.8557 115.484C82.1327 118.506 96.1202 128.019 100.204 130.397C104.288 132.777 109.69 133.645 112.744 133.324C115.767 133.002 117.439 133.42 120.108 133.806C122.295 134.127 130.284 134.263 134.272 133.749C135.108 133.652 136.458 133.363 138.002 133.009C139.095 133.942 143.163 135.832 146.089 137.053C148.726 138.147 149.305 138.307 151.363 138.596C151.138 138.629 150.881 138.661 150.655 138.693C139.916 139.947 127.697 138.307 127.697 138.307L128.758 139.465C117.536 145.317 105.735 148.597 90.3644 148.757C88.2424 148.693 86.1519 148.597 84.1588 148.5C70.8145 147.021 61.5538 140.044 60.4279 139.176C59.5599 138.501 57.0197 137.504 53.9967 135.542C54.6076 134.353 52.6783 132.552 50.8778 130.622C48.9163 128.404 48.3054 125.125 49.0452 124.449Z" fill="#EAC6B6"/>
<path d="M68.4981 86.6364L68.723 65.1577L65.829 64.9648C65.829 64.9648 66.0861 81.4917 65.829 87.8261C65.5719 94.1603 65.2503 99.5943 65.1859 103.195C65.1214 106.797 65.0577 115.607 66.601 122.841C68.1443 130.076 71.3922 139.883 72.9355 143.259C74.4788 146.603 76.0866 149.786 76.0866 149.786L79.8164 150.751C79.8164 150.751 75.7006 144.095 73.5786 137.632C71.4559 131.169 69.7199 125.671 68.7875 118.79C68.0154 113.035 68.0154 107.215 68.0799 102.906C68.1443 98.5653 68.4981 86.6364 68.4981 86.6364Z" fill="#151516"/>
<path d="M7.98458 115.86L7.59856 102.098C7.59856 102.098 7.69524 97.1462 13.9008 96.8568C19.2384 96.5996 23.2905 96.8568 23.2905 102.58C23.2905 103.738 23.5476 109.461 23.8047 115.152C21.2967 116.117 15.8559 117.528 7.98458 115.86Z" fill="#151516"/>
<path d="M16.1491 125.864C14.0894 125.864 12.4194 124.194 12.4194 122.134C12.4194 120.075 14.0894 118.405 16.1491 118.405C18.2089 118.405 19.8789 120.075 19.8789 122.134C19.8789 124.194 18.2089 125.864 16.1491 125.864Z" fill="white"/>
<path d="M117.954 120.527C112.005 119.723 105.156 118.501 101.104 116.54C97.0207 114.611 90.8474 110.334 86.9565 109.948C83.0655 109.563 78.4355 109.852 76.0234 109.369C73.6121 108.887 70.7825 108.115 73.3228 111.491C75.8308 114.868 86.2166 122.713 92.1973 125.928C98.3714 129.208 100.526 132.23 106.346 133.581C111.298 134.738 115.446 133.581 119.722 134.353C123.999 135.124 133.195 134.546 143.549 132.038C153.903 129.53 159.209 128.082 162.746 124.482L156.444 122.553C156.412 122.553 141.781 123.71 117.954 120.527Z" fill="#79465B"/>
</g>
<defs>
<clipPath id="clip0">
<rect width="140" height="132" rx="8" transform="matrix(-1 0 0 1 140 0)" fill="white"/>
</clipPath>
</defs>
</svg>
