<svg width="13" height="8" viewBox="0 0 13 8" fill="none" xmlns="http://www.w3.org/2000/svg">
<path d="M12.9971 3.50298L12.9971 4.50298C12.9971 4.77912 12.7731 5.00298 12.4969 5.00298L4.99214 5.00298L4.99214 7.00298C4.98933 7.20302 4.86751 7.38212 4.68247 7.4583C4.49742 7.53447 4.28477 7.49304 4.14188 7.35298L1.14095 4.35298C0.949111 4.15517 0.949111 3.84079 1.14095 3.64298L4.14188 0.64298C4.28607 0.501676 4.50112 0.460911 4.68705 0.539634C4.87298 0.618358 4.99332 0.801126 4.99214 1.00298L4.99214 3.00298L12.4969 3.00298C12.7731 3.00298 12.9971 3.22684 12.9971 3.50298Z" fill="#1043b2"/>
</svg>
