<svg width="15" height="12" viewBox="0 0 15 12" fill="none" xmlns="http://www.w3.org/2000/svg">
<path fill-rule="evenodd" clip-rule="evenodd" d="M9.49497 1.08076C9.2216 0.80739 8.77839 0.807391 8.50502 1.08076L8.08076 1.50502C7.80739 1.77839 7.80739 2.2216 8.08076 2.49497L10.5858 5H0.7C0.313401 5 0 5.3134 0 5.7V6.3C0 6.6866 0.3134 7 0.7 7H10.5858L8.08076 9.50502C7.80739 9.77839 7.80739 10.2216 8.08076 10.495L8.50502 10.9192C8.77839 11.1926 9.2216 11.1926 9.49497 10.9192L13.9192 6.49497C14.1926 6.2216 14.1926 5.77839 13.9192 5.50502L9.49497 1.08076Z" fill="#2C3242"/>
</svg>
