<svg width="18" height="16" viewBox="0 0 18 16" fill="none" xmlns="http://www.w3.org/2000/svg">
<g clip-path="url(#clip0)">
<path d="M18 2.26471C17.3375 2.57353 16.6233 2.77647 15.8834 2.87353C16.6405 2.40588 17.2256 1.66471 17.501 0.773529C16.7868 1.21471 15.9952 1.52353 15.1606 1.7C14.4809 0.941177 13.5258 0.5 12.4417 0.5C10.4197 0.5 8.76769 2.19412 8.76769 4.28529C8.76769 4.58529 8.8021 4.87647 8.86233 5.15C5.79924 4.99118 3.0717 3.48235 1.25621 1.19706C0.937859 1.75294 0.75717 2.40588 0.75717 3.09412C0.75717 4.40882 1.40249 5.57353 2.40057 6.23529C1.78967 6.23529 1.2218 6.05882 0.722754 5.79412C0.722754 5.79412 0.722754 5.79412 0.722754 5.82059C0.722754 7.65588 1.99618 9.19118 3.6826 9.53529C3.37285 9.62353 3.04589 9.66765 2.71033 9.66765C2.47801 9.66765 2.2457 9.64118 2.02199 9.59706C2.48662 11.0882 3.83748 12.2 5.46367 12.2265C4.20746 13.25 2.61568 13.85 0.877629 13.85C0.585086 13.85 0.292543 13.8324 0 13.7971C1.6348 14.8735 3.57935 15.5 5.66157 15.5C12.4417 15.5 16.1673 9.72941 16.1673 4.72647C16.1673 4.55882 16.1673 4.4 16.1587 4.23235C16.8815 3.70294 17.501 3.03235 18 2.26471Z" fill="#8F94A2"/>
</g>
<defs>
<clipPath id="clip0">
<rect width="18" height="16" fill="white"/>
</clipPath>
</defs>
</svg>
