<svg width="125" height="36" viewBox="0 0 125 36" fill="none" xmlns="http://www.w3.org/2000/svg">
<rect width="100" height="28.8" rx="4" transform="matrix(1.25 0 0 -1.25 0 36)" fill="black"/>
<path d="M43.7094 9.21934C43.7094 9.97084 43.479 10.5727 43.025 11.0216C42.503 11.5537 41.8232 11.8215 40.9901 11.8215C40.1939 11.8215 39.514 11.5492 38.9563 11.0126C38.3975 10.4681 38.1187 9.79984 38.1187 8.99997C38.1187 8.20009 38.3975 7.53184 38.9563 6.99184C39.514 6.45072 40.1939 6.17847 40.9901 6.17847C41.3865 6.17847 41.7644 6.25834 42.1251 6.40684C42.4846 6.55647 42.7772 6.75897 42.9893 7.00872L42.5076 7.48347C42.1377 7.05709 41.6342 6.84672 40.9901 6.84672C40.4093 6.84672 39.9058 7.04472 39.4783 7.44409C39.0554 7.84459 38.8434 8.36322 38.8434 8.99997C38.8434 9.63672 39.0554 10.1598 39.4783 10.5603C39.9058 10.9552 40.4093 11.1577 40.9901 11.1577C41.6065 11.1577 42.1251 10.9552 42.5341 10.5558C42.8037 10.2915 42.957 9.92697 42.9973 9.46122H40.9901V8.81097H43.6679C43.7002 8.95159 43.7094 9.08772 43.7094 9.21934Z" fill="white" stroke="white" stroke-width="0.16" stroke-miterlimit="10"/>
<path d="M47.9584 6.96463H45.4431V8.67463H47.7107V9.32488H45.4431V11.0349H47.9584V11.6975H44.731V6.302H47.9584V6.96463Z" fill="white" stroke="white" stroke-width="0.16" stroke-miterlimit="10"/>
<path d="M50.9557 11.6975H50.2436V6.96463H48.7007V6.302H52.4997V6.96463H50.9557V11.6975Z" fill="white" stroke="white" stroke-width="0.16" stroke-miterlimit="10"/>
<path d="M55.2495 11.6975V6.302H55.9605V11.6975H55.2495Z" fill="white" stroke="white" stroke-width="0.16" stroke-miterlimit="10"/>
<path d="M59.1119 11.6975H58.4056V6.96463H56.8569V6.302H60.6605V6.96463H59.1119V11.6975Z" fill="white" stroke="white" stroke-width="0.16" stroke-miterlimit="10"/>
<path d="M67.853 11.0036C67.308 11.5492 66.6328 11.8215 65.8274 11.8215C65.0173 11.8215 64.3421 11.5492 63.7971 11.0036C63.2532 10.4591 62.9824 9.79084 62.9824 8.99997C62.9824 8.20909 63.2532 7.54084 63.7971 6.99634C64.3421 6.45072 65.0173 6.17847 65.8274 6.17847C66.6282 6.17847 67.3034 6.45072 67.8484 7.00084C68.3969 7.54984 68.6677 8.21359 68.6677 8.99997C68.6677 9.79084 68.3969 10.4591 67.853 11.0036ZM64.3237 10.5513C64.7339 10.9552 65.2328 11.1577 65.8274 11.1577C66.4173 11.1577 66.9208 10.9552 67.3264 10.5513C67.7355 10.1475 67.9429 9.62884 67.9429 8.99997C67.9429 8.37109 67.7355 7.85247 67.3264 7.44859C66.9208 7.04472 66.4173 6.84222 65.8274 6.84222C65.2328 6.84222 64.7339 7.04472 64.3237 7.44859C63.9146 7.85247 63.7072 8.37109 63.7072 8.99997C63.7072 9.62884 63.9146 10.1475 64.3237 10.5513Z" fill="white" stroke="white" stroke-width="0.16" stroke-miterlimit="10"/>
<path d="M69.666 11.6975V6.302H70.5302L73.2173 10.4983H73.2484L73.2173 9.461V6.302H73.9282V11.6975H73.1862L70.3723 7.29425H70.3412L70.3723 8.336V11.6975H69.666Z" fill="white" stroke="white" stroke-width="0.16" stroke-miterlimit="10"/>
<path d="M62.8074 19.5772C60.6423 19.5772 58.8736 21.1859 58.8736 23.4056C58.8736 25.6072 60.6423 27.2328 62.8074 27.2328C64.9771 27.2328 66.7459 25.6072 66.7459 23.4056C66.7459 21.1859 64.9771 19.5772 62.8074 19.5772ZM62.8074 25.7253C61.6195 25.7253 60.5974 24.7679 60.5974 23.4056C60.5974 22.0252 61.6195 21.0847 62.8074 21.0847C63.9954 21.0847 65.0221 22.0252 65.0221 23.4056C65.0221 24.7679 63.9954 25.7253 62.8074 25.7253ZM54.2243 19.5772C52.0545 19.5772 50.2904 21.1859 50.2904 23.4056C50.2904 25.6072 52.0545 27.2328 54.2243 27.2328C56.3928 27.2328 58.1581 25.6072 58.1581 23.4056C58.1581 21.1859 56.3928 19.5772 54.2243 19.5772ZM54.2243 25.7253C53.0351 25.7253 52.0096 24.7679 52.0096 23.4056C52.0096 22.0252 53.0351 21.0847 54.2243 21.0847C55.4122 21.0847 56.4343 22.0252 56.4343 23.4056C56.4343 24.7679 55.4122 25.7253 54.2243 25.7253ZM44.0106 20.7506V22.3773H47.9894C47.873 23.2863 47.5619 23.9546 47.0849 24.4203C46.5041 24.9828 45.5996 25.6072 44.0106 25.6072C41.5621 25.6072 39.6447 23.6778 39.6447 21.2872C39.6447 18.8966 41.5621 16.9672 44.0106 16.9672C45.3346 16.9672 46.2979 17.4723 47.0088 18.1271L48.183 16.9807C47.1886 16.0537 45.8658 15.3416 44.0106 15.3416C40.6529 15.3416 37.8311 18.0089 37.8311 21.2872C37.8311 24.5654 40.6529 27.2328 44.0106 27.2328C45.8254 27.2328 47.1886 26.6523 48.2602 25.5633C49.3583 24.4912 49.7005 22.9837 49.7005 21.7664C49.7005 21.3884 49.6682 21.0408 49.6106 20.7506H44.0106ZM85.7754 22.0117C85.4516 21.1556 84.4526 19.5772 82.4177 19.5772C80.4013 19.5772 78.7224 21.1286 78.7224 23.4056C78.7224 25.5498 80.384 27.2328 82.6113 27.2328C84.4123 27.2328 85.4516 26.1607 85.8791 25.5363L84.5425 24.6667C84.0966 25.3034 83.4893 25.7253 82.6113 25.7253C81.7391 25.7253 81.1134 25.3349 80.7124 24.5654L85.9563 22.4471L85.7754 22.0117ZM80.4289 23.2863C80.384 21.8103 81.6031 21.0543 82.4765 21.0543C83.161 21.0543 83.7417 21.3884 83.9353 21.8666L80.4289 23.2863ZM76.1667 26.9999H77.8905V15.7499H76.1667V26.9999ZM73.3437 20.4299H73.2861C72.8989 19.9822 72.1603 19.5772 71.2247 19.5772C69.2612 19.5772 67.466 21.2602 67.466 23.4179C67.466 25.5633 69.2612 27.2328 71.2247 27.2328C72.1603 27.2328 72.8989 26.8244 73.2861 26.3632H73.3437V26.9122C73.3437 28.3758 72.5429 29.1622 71.2512 29.1622C70.198 29.1622 69.5447 28.4197 69.2751 27.7953L67.776 28.4062C68.2081 29.4209 69.3523 30.6697 71.2512 30.6697C73.2723 30.6697 74.9776 29.5087 74.9776 26.6838V19.8101H73.3437V20.4299ZM71.3722 25.7253C70.1842 25.7253 69.1898 24.7544 69.1898 23.4179C69.1898 22.0691 70.1842 21.0847 71.3722 21.0847C72.5429 21.0847 73.4658 22.0691 73.4658 23.4179C73.4658 24.7544 72.5429 25.7253 71.3722 25.7253ZM93.8459 15.7499H89.7231V26.9999H91.4422V22.7373H93.8459C95.7551 22.7373 97.6276 21.3884 97.6276 19.2431C97.6276 17.0988 95.7505 15.7499 93.8459 15.7499ZM93.8908 21.1724H91.4422V17.3148H93.8908C95.1744 17.3148 95.9073 18.3554 95.9073 19.2431C95.9073 20.1138 95.1744 21.1724 93.8908 21.1724ZM104.518 19.5558C103.276 19.5558 101.984 20.0913 101.453 21.2782L102.979 21.9026C103.307 21.2782 103.911 21.0757 104.549 21.0757C105.441 21.0757 106.346 21.5988 106.359 22.5224V22.6406C106.048 22.4651 105.382 22.2052 104.563 22.2052C102.92 22.2052 101.246 23.0883 101.246 24.7364C101.246 26.2439 102.592 27.2148 104.104 27.2148C105.261 27.2148 105.9 26.7052 106.301 26.1123H106.359V26.9819H108.02V22.6664C108.02 20.6718 106.494 19.5558 104.518 19.5558ZM104.311 25.7208C103.748 25.7208 102.965 25.4486 102.965 24.7679C102.965 23.8972 103.942 23.5631 104.788 23.5631C105.545 23.5631 105.9 23.7262 106.359 23.9411C106.225 24.9828 105.306 25.7208 104.311 25.7208ZM114.069 19.8022L112.093 24.6791H112.034L109.991 19.8022H108.137L111.207 26.6174L109.456 30.4098H111.252L115.982 19.8022H114.069ZM98.5724 26.9999H100.296V15.7499H98.5724V26.9999Z" fill="white"/>
<path d="M9.61938 6.78502C9.3486 7.06177 9.19189 7.49264 9.19189 8.05064V27.9541C9.19189 28.5121 9.3486 28.943 9.61938 29.2198L9.68621 29.2805L21.1097 18.1318V17.8685L9.68621 6.71977L9.61938 6.78502Z" fill="url(#paint0_linear)"/>
<path d="M24.9135 21.8496L21.1099 18.1315V17.8682L24.9181 14.1501L25.0033 14.1985L29.5133 16.7039C30.8004 17.4149 30.8004 18.5849 29.5133 19.3004L25.0033 21.8012L24.9135 21.8496Z" fill="url(#paint1_linear)"/>
<path d="M25.003 21.8012L21.1095 17.9999L9.61914 29.2195C10.0466 29.6582 10.7437 29.7111 11.5365 29.2724L25.003 21.8012Z" fill="url(#paint2_linear)"/>
<path d="M25.003 14.1986L11.5365 6.7275C10.7437 6.29325 10.0466 6.34613 9.61914 6.78488L21.1095 18L25.003 14.1986Z" fill="url(#paint3_linear)"/>
<defs>
<linearGradient id="paint0_linear" x1="20.0954" y1="28.1614" x2="4.99562" y2="12.6957" gradientUnits="userSpaceOnUse">
<stop stop-color="#00A0FF"/>
<stop offset="0.0066" stop-color="#00A1FF"/>
<stop offset="0.2601" stop-color="#00BEFF"/>
<stop offset="0.5122" stop-color="#00D2FF"/>
<stop offset="0.7604" stop-color="#00DFFF"/>
<stop offset="1" stop-color="#00E3FF"/>
</linearGradient>
<linearGradient id="paint1_linear" x1="31.1893" y1="17.9986" x2="8.88439" y2="17.9986" gradientUnits="userSpaceOnUse">
<stop stop-color="#FFE000"/>
<stop offset="0.4087" stop-color="#FFBD00"/>
<stop offset="0.7754" stop-color="#FFA500"/>
<stop offset="1" stop-color="#FF9C00"/>
</linearGradient>
<linearGradient id="paint2_linear" x1="22.8858" y1="15.9334" x2="2.4092" y2="-5.03941" gradientUnits="userSpaceOnUse">
<stop stop-color="#FF3A44"/>
<stop offset="1" stop-color="#C31162"/>
</linearGradient>
<linearGradient id="paint3_linear" x1="6.72678" y1="35.8414" x2="15.8705" y2="26.4762" gradientUnits="userSpaceOnUse">
<stop stop-color="#32A071"/>
<stop offset="0.0685" stop-color="#2DA771"/>
<stop offset="0.4762" stop-color="#15CF74"/>
<stop offset="0.8009" stop-color="#06E775"/>
<stop offset="1" stop-color="#00F076"/>
</linearGradient>
</defs>
</svg>
