<svg width="125" height="36" viewBox="0 0 125 36" fill="none" xmlns="http://www.w3.org/2000/svg">
<rect width="125" height="36" rx="4" fill="black"/>
<path d="M27.8111 17.8055C27.7844 14.9048 30.2471 13.4936 30.3598 13.4279C28.965 11.4452 26.8031 11.1743 26.0435 11.1527C24.2278 10.9664 22.4665 12.212 21.5416 12.212C20.5982 12.212 19.1739 11.1707 17.6388 11.2013C15.6635 11.231 13.8155 12.3461 12.8019 14.0777C10.7102 17.6084 12.2702 22.7969 14.2742 25.6508C15.2767 27.0485 16.4481 28.6091 17.9813 28.5542C19.4813 28.4939 20.0416 27.6218 21.8518 27.6218C23.6453 27.6218 24.1715 28.5542 25.7351 28.5191C27.345 28.4939 28.3585 27.1151 29.3259 25.7048C30.4844 24.1028 30.9496 22.5251 30.9681 22.4441C30.9302 22.4315 27.8416 21.2822 27.8111 17.8055Z" fill="white"/>
<path d="M24.8573 9.27531C25.6641 8.29161 26.2161 6.95331 26.0628 5.59521C24.8951 5.64561 23.4348 6.38271 22.5939 7.34481C21.8499 8.19261 21.1853 9.58221 21.357 10.889C22.6687 10.9844 24.0155 10.2437 24.8573 9.27531Z" fill="white"/>
<path d="M49.5182 28.3534H47.4219L46.2736 24.8353H42.2822L41.1884 28.3534H39.1475L43.1019 16.3762H45.5444L49.5182 28.3534ZM45.9275 23.3593L44.889 20.2318C44.7792 19.9123 44.5733 19.1599 44.2696 17.9755H44.2327C44.1118 18.4849 43.917 19.2373 43.6493 20.2318L42.6293 23.3593H45.9275Z" fill="white"/>
<path d="M59.6874 23.9291C59.6874 25.3979 59.2803 26.5589 58.4661 27.4112C57.7369 28.1699 56.8314 28.5488 55.7505 28.5488C54.5837 28.5488 53.7455 28.1402 53.2351 27.323H53.1981V31.8725H51.2301V22.5602C51.2301 21.6368 51.2052 20.6891 51.1572 19.7171H52.888L52.9978 21.086H53.0348C53.6911 20.0546 54.6871 19.5398 56.0237 19.5398C57.0686 19.5398 57.9409 19.9421 58.6388 20.7476C59.3385 21.554 59.6874 22.6142 59.6874 23.9291ZM57.6825 23.9993C57.6825 23.1587 57.4886 22.4657 57.0991 21.9203C56.6735 21.3515 56.1021 21.0671 55.3858 21.0671C54.9003 21.0671 54.4591 21.2255 54.0649 21.5378C53.6698 21.8528 53.4114 22.2641 53.2905 22.7735C53.2295 23.0111 53.1991 23.2055 53.1991 23.3585V24.7985C53.1991 25.4267 53.3966 25.9568 53.7917 26.3897C54.1868 26.8226 54.7 27.0386 55.3314 27.0386C56.0726 27.0386 56.6495 26.7596 57.0621 26.2034C57.4757 25.6463 57.6825 24.9119 57.6825 23.9993Z" fill="white"/>
<path d="M69.8749 23.9291C69.8749 25.3979 69.4679 26.5589 68.6528 27.4112C67.9245 28.1699 67.0189 28.5488 65.938 28.5488C64.7712 28.5488 63.9331 28.1402 63.4235 27.323H63.3866V31.8725H61.4186V22.5602C61.4186 21.6368 61.3937 20.6891 61.3457 19.7171H63.0765L63.1863 21.086H63.2232C63.8786 20.0546 64.8746 19.5398 66.2122 19.5398C67.2562 19.5398 68.1285 19.9421 68.8282 20.7476C69.5251 21.554 69.8749 22.6142 69.8749 23.9291ZM67.87 23.9993C67.87 23.1587 67.6752 22.4657 67.2857 21.9203C66.8602 21.3515 66.2906 21.0671 65.5734 21.0671C65.0869 21.0671 64.6466 21.2255 64.2516 21.5378C63.8565 21.8528 63.5989 22.2641 63.478 22.7735C63.418 23.0111 63.3866 23.2055 63.3866 23.3585V24.7985C63.3866 25.4267 63.5842 25.9568 63.9774 26.3897C64.3725 26.8217 64.8857 27.0386 65.5189 27.0386C66.2602 27.0386 66.8371 26.7596 67.2497 26.2034C67.6632 25.6463 67.87 24.9119 67.87 23.9993Z" fill="white"/>
<path d="M81.2659 24.9946C81.2659 26.0134 80.9032 26.8423 80.1749 27.4822C79.3746 28.1815 78.2604 28.5307 76.8287 28.5307C75.5069 28.5307 74.4472 28.2823 73.645 27.7846L74.101 26.1853C74.965 26.6947 75.913 26.9503 76.9459 26.9503C77.6872 26.9503 78.2641 26.7865 78.6786 26.4607C79.0912 26.1349 79.297 25.6975 79.297 25.1521C79.297 24.6661 79.1272 24.2566 78.7866 23.9245C78.4478 23.5924 77.8819 23.2837 77.0918 22.9984C74.941 22.2163 73.8666 21.0706 73.8666 19.564C73.8666 18.5794 74.2432 17.7721 74.9973 17.1439C75.7487 16.5148 76.7512 16.2007 78.0047 16.2007C79.1226 16.2007 80.0512 16.3906 80.7924 16.7695L80.3004 18.3337C79.6081 17.9665 78.8253 17.7829 77.9493 17.7829C77.257 17.7829 76.7161 17.9494 76.3284 18.2806C76.0007 18.5767 75.8364 18.9376 75.8364 19.3651C75.8364 19.8385 76.0238 20.23 76.4004 20.5378C76.7281 20.8222 77.3235 21.13 78.1875 21.4621C79.2444 21.877 80.0207 22.3621 80.5201 22.9183C81.0176 23.4727 81.2659 24.1666 81.2659 24.9946Z" fill="white"/>
<path d="M87.7734 21.1568H85.6041V25.3499C85.6041 26.4164 85.9863 26.9492 86.7524 26.9492C87.1041 26.9492 87.3958 26.9195 87.6266 26.8601L87.6811 28.3172C87.2934 28.4585 86.7829 28.5296 86.1506 28.5296C85.3734 28.5296 84.766 28.2983 84.3275 27.8366C83.8909 27.374 83.6712 26.5982 83.6712 25.5083V21.155H82.3789V19.715H83.6712V18.1337L85.6041 17.5649V19.715H87.7734V21.1568Z" fill="white"/>
<path d="M97.5603 23.964C97.5603 25.2915 97.1707 26.3814 96.3935 27.2337C95.5784 28.1112 94.4966 28.5486 93.148 28.5486C91.8483 28.5486 90.8135 28.1283 90.0418 27.2877C89.2701 26.4471 88.8843 25.386 88.8843 24.1071C88.8843 22.7688 89.2812 21.6726 90.0778 20.8203C90.8726 19.9671 91.9452 19.5405 93.2938 19.5405C94.5935 19.5405 95.6393 19.9608 96.4286 20.8023C97.1837 21.6186 97.5603 22.6725 97.5603 23.964ZM95.5184 24.0261C95.5184 23.2296 95.344 22.5465 94.9904 21.9768C94.5778 21.2874 93.988 20.9436 93.2237 20.9436C92.4326 20.9436 91.8317 21.2883 91.419 21.9768C91.0655 22.5474 90.891 23.2413 90.891 24.0621C90.891 24.8586 91.0655 25.5417 91.419 26.1105C91.8446 26.7999 92.439 27.1437 93.2061 27.1437C93.9575 27.1437 94.5474 26.7927 94.9729 26.0925C95.3357 25.512 95.5184 24.8217 95.5184 24.0261Z" fill="white"/>
<path d="M103.958 21.4046C103.763 21.3695 103.555 21.3515 103.338 21.3515C102.645 21.3515 102.11 21.6062 101.733 22.1165C101.406 22.5665 101.241 23.1353 101.241 23.822V28.3535H99.2741L99.2926 22.4369C99.2926 21.4415 99.2677 20.5352 99.2188 19.718H100.933L101.005 21.3704H101.059C101.267 20.8025 101.595 20.3453 102.043 20.0024C102.482 19.6937 102.955 19.5398 103.466 19.5398C103.648 19.5398 103.812 19.5524 103.958 19.5749V21.4046Z" fill="white"/>
<path d="M112.759 23.6268C112.759 23.9706 112.736 24.2604 112.687 24.4971H106.783C106.806 25.3503 107.091 26.0028 107.639 26.4528C108.137 26.8551 108.78 27.0567 109.57 27.0567C110.445 27.0567 111.242 26.9208 111.959 26.6481L112.268 27.9801C111.429 28.3365 110.44 28.5138 109.298 28.5138C107.925 28.5138 106.846 28.1196 106.062 27.3321C105.279 26.5446 104.887 25.4871 104.887 24.1605C104.887 22.8582 105.251 21.7737 105.981 20.9088C106.746 19.9854 107.779 19.5237 109.078 19.5237C110.355 19.5237 111.321 19.9854 111.978 20.9088C112.497 21.6423 112.759 22.5495 112.759 23.6268ZM110.882 23.1291C110.895 22.5603 110.767 22.0689 110.5 21.654C110.159 21.1203 109.636 20.8539 108.932 20.8539C108.288 20.8539 107.765 21.114 107.365 21.636C107.037 22.0509 106.843 22.5486 106.783 23.1282H110.882V23.1291Z" fill="white"/>
<path d="M45.2765 9.00832C45.2765 10.0676 44.9507 10.865 44.2999 11.4005C43.6972 11.8946 42.8405 12.1421 41.731 12.1421C41.1808 12.1421 40.7101 12.1187 40.3159 12.0719V6.28402C40.8301 6.20302 41.3839 6.16162 41.9821 6.16162C43.039 6.16162 43.8356 6.38572 44.3728 6.83392C44.9747 7.34062 45.2765 8.06512 45.2765 9.00832ZM44.2565 9.03442C44.2565 8.34772 44.0701 7.82122 43.6972 7.45402C43.3242 7.08772 42.7796 6.90412 42.0624 6.90412C41.7578 6.90412 41.4984 6.92392 41.2833 6.96532V11.3654C41.4024 11.3834 41.6202 11.3915 41.9368 11.3915C42.6772 11.3915 43.2485 11.1908 43.651 10.7894C44.0535 10.388 44.2565 9.80302 44.2565 9.03442Z" fill="white"/>
<path d="M50.6857 9.93359C50.6857 10.5861 50.4946 11.1207 50.1124 11.5401C49.7118 11.9712 49.1811 12.1863 48.5183 12.1863C47.8795 12.1863 47.3709 11.9802 46.9915 11.5662C46.6131 11.1531 46.4238 10.632 46.4238 10.0038C46.4238 9.34679 46.6186 8.80769 47.01 8.38919C47.4014 7.97069 47.9275 7.76099 48.5903 7.76099C49.2291 7.76099 49.7423 7.96709 50.1309 8.38019C50.5001 8.78159 50.6857 9.29999 50.6857 9.93359ZM49.6823 9.96419C49.6823 9.57269 49.5955 9.23699 49.4229 8.95709C49.2198 8.61869 48.9309 8.44949 48.5552 8.44949C48.1666 8.44949 47.8712 8.61869 47.6681 8.95709C47.4946 9.23699 47.4088 9.57809 47.4088 9.98129C47.4088 10.3728 47.4955 10.7085 47.6681 10.9884C47.8777 11.3268 48.1694 11.496 48.546 11.496C48.9152 11.496 49.2051 11.3241 49.4137 10.9794C49.5928 10.6941 49.6823 10.3557 49.6823 9.96419Z" fill="white"/>
<path d="M57.9369 7.84741L56.5754 12.09H55.6892L55.1252 10.2477C54.9822 9.78781 54.8659 9.33061 54.7754 8.87701H54.7579C54.6739 9.34321 54.5576 9.79951 54.408 10.2477L53.8089 12.09H52.9126L51.6323 7.84741H52.6265L53.1185 9.86431C53.2376 10.3413 53.3354 10.7958 53.4139 11.226H53.4314C53.5034 10.8714 53.6225 10.4196 53.7905 9.87331L54.408 7.84831H55.1963L55.788 9.83011C55.9311 10.3134 56.0474 10.7787 56.1369 11.2269H56.1637C56.2292 10.7904 56.328 10.3251 56.4591 9.83011L56.9871 7.84831H57.9369V7.84741Z" fill="white"/>
<path d="M62.9523 12.0898H61.9849V9.65976C61.9849 8.91096 61.6932 8.53656 61.108 8.53656C60.8209 8.53656 60.5893 8.63916 60.4093 8.84526C60.2311 9.05136 60.1406 9.29436 60.1406 9.57246V12.0889H59.1733V9.05946C59.1733 8.68686 59.1613 8.28276 59.1382 7.84536H59.9883L60.0336 8.50866H60.0603C60.173 8.30256 60.3409 8.13246 60.5616 7.99656C60.8237 7.83816 61.1173 7.75806 61.4385 7.75806C61.8446 7.75806 62.1825 7.88586 62.4511 8.14236C62.7852 8.45646 62.9523 8.92536 62.9523 9.54816V12.0898Z" fill="white"/>
<path d="M65.6198 12.0899H64.6533V5.90063H65.6198V12.0899Z" fill="white"/>
<path d="M71.3141 9.93359C71.3141 10.5861 71.123 11.1207 70.7409 11.5401C70.3402 11.9712 69.8086 12.1863 69.1467 12.1863C68.507 12.1863 67.9984 11.9802 67.6199 11.5662C67.2415 11.1531 67.0522 10.632 67.0522 10.0038C67.0522 9.34679 67.247 8.80769 67.6384 8.38919C68.0298 7.97069 68.5559 7.76099 69.2178 7.76099C69.8575 7.76099 70.3698 7.96709 70.7593 8.38019C71.1286 8.78159 71.3141 9.29999 71.3141 9.93359ZM70.3098 9.96419C70.3098 9.57269 70.223 9.23699 70.0504 8.95709C69.8482 8.61869 69.5584 8.44949 69.1836 8.44949C68.7941 8.44949 68.4987 8.61869 68.2966 8.95709C68.123 9.23699 68.0372 9.57809 68.0372 9.98129C68.0372 10.3728 68.1239 10.7085 68.2966 10.9884C68.5061 11.3268 68.7978 11.496 69.1744 11.496C69.5436 11.496 69.8326 11.3241 70.0412 10.9794C70.2212 10.6941 70.3098 10.3557 70.3098 9.96419Z" fill="white"/>
<path d="M75.9966 12.09H75.128L75.056 11.6013H75.0292C74.732 11.991 74.3083 12.1863 73.7582 12.1863C73.3474 12.1863 73.0151 12.0576 72.7649 11.802C72.5379 11.5698 72.4243 11.2809 72.4243 10.938C72.4243 10.4196 72.6459 10.0245 73.0917 9.75089C73.5366 9.47729 74.1625 9.34319 74.9683 9.34949V9.27029C74.9683 8.71139 74.6674 8.43239 74.0646 8.43239C73.6354 8.43239 73.2569 8.53769 72.9302 8.74649L72.7335 8.12729C73.1379 7.88339 73.6372 7.76099 74.2262 7.76099C75.3634 7.76099 75.9339 8.34599 75.9339 9.51599V11.0784C75.9339 11.5023 75.9551 11.8398 75.9966 12.09ZM74.9923 10.632V9.97769C73.9252 9.95969 73.3917 10.245 73.3917 10.8327C73.3917 11.0541 73.4526 11.2197 73.5772 11.3304C73.7019 11.4411 73.8606 11.496 74.0499 11.496C74.2622 11.496 74.4606 11.4303 74.6415 11.2998C74.8234 11.1684 74.9351 11.0019 74.9766 10.7976C74.9868 10.7517 74.9923 10.6959 74.9923 10.632Z" fill="white"/>
<path d="M81.4932 12.0899H80.6347L80.5895 11.4086H80.5627C80.2886 11.927 79.8215 12.1862 79.1652 12.1862C78.6409 12.1862 78.2043 11.9855 77.8581 11.5841C77.512 11.1827 77.3394 10.6616 77.3394 10.0217C77.3394 9.33503 77.5267 8.77883 77.9034 8.35403C78.268 7.95803 78.7147 7.76003 79.2464 7.76003C79.8307 7.76003 80.2397 7.95173 80.4723 8.33603H80.4907V5.90063H81.459V10.9469C81.459 11.36 81.4701 11.7407 81.4932 12.0899ZM80.4907 10.3007V9.59333C80.4907 9.47093 80.4815 9.37193 80.464 9.29633C80.4095 9.06953 80.2923 8.87873 80.1141 8.72483C79.9341 8.57093 79.7172 8.49353 79.467 8.49353C79.1061 8.49353 78.8237 8.63303 78.616 8.91293C78.4101 9.19283 78.3058 9.55013 78.3058 9.98663C78.3058 10.406 78.4046 10.7462 78.603 11.0081C78.8126 11.2871 79.095 11.4266 79.4486 11.4266C79.7661 11.4266 80.02 11.3105 80.2129 11.0774C80.3994 10.8623 80.4907 10.6031 80.4907 10.3007Z" fill="white"/>
<path d="M89.7672 9.93359C89.7672 10.5861 89.5761 11.1207 89.194 11.5401C88.7934 11.9712 88.2635 12.1863 87.5998 12.1863C86.962 12.1863 86.4534 11.9802 86.0731 11.5662C85.6946 11.1531 85.5054 10.632 85.5054 10.0038C85.5054 9.34679 85.7001 8.80769 86.0915 8.38919C86.4829 7.97069 87.0091 7.76099 87.6728 7.76099C88.3106 7.76099 88.8248 7.96709 89.2124 8.38019C89.5817 8.78159 89.7672 9.29999 89.7672 9.93359ZM88.7648 9.96419C88.7648 9.57269 88.678 9.23699 88.5054 8.95709C88.3014 8.61869 88.0134 8.44949 87.6368 8.44949C87.2491 8.44949 86.9537 8.61869 86.7497 8.95709C86.5761 9.23699 86.4903 9.57809 86.4903 9.98129C86.4903 10.3728 86.5771 10.7085 86.7497 10.9884C86.9592 11.3268 87.2509 11.496 87.6275 11.496C87.9968 11.496 88.2875 11.3241 88.4961 10.9794C88.6743 10.6941 88.7648 10.3557 88.7648 9.96419Z" fill="white"/>
<path d="M94.969 12.0898H94.0025V9.65976C94.0025 8.91096 93.7108 8.53656 93.1247 8.53656C92.8376 8.53656 92.6059 8.63916 92.4268 8.84526C92.2478 9.05136 92.1582 9.29436 92.1582 9.57246V12.0889H91.1899V9.05946C91.1899 8.68686 91.1788 8.28276 91.1558 7.84536H92.005L92.0502 8.50866H92.077C92.1905 8.30256 92.3585 8.13246 92.5782 7.99656C92.8413 7.83816 93.1339 7.75806 93.4561 7.75806C93.8613 7.75806 94.1991 7.88586 94.4678 8.14236C94.8028 8.45646 94.969 8.92536 94.969 9.54816V12.0898Z" fill="white"/>
<path d="M101.48 8.55387H100.415V10.6149C100.415 11.1387 100.604 11.4006 100.979 11.4006C101.152 11.4006 101.296 11.3862 101.41 11.3565L101.435 12.072C101.243 12.1422 100.992 12.1773 100.683 12.1773C100.301 12.1773 100.004 12.0639 99.7887 11.8371C99.5727 11.6103 99.4656 11.2287 99.4656 10.6932V8.55387H98.8296V7.84737H99.4656V7.06977L100.414 6.79077V7.84647H101.479V8.55387H101.48Z" fill="white"/>
<path d="M106.6 12.0899H105.632V9.67793C105.632 8.91743 105.34 8.53673 104.756 8.53673C104.307 8.53673 104 8.75723 103.832 9.19824C103.804 9.29094 103.787 9.40433 103.787 9.53753V12.089H102.821V5.90063H103.787V8.45754H103.806C104.11 7.99223 104.547 7.76003 105.113 7.76003C105.513 7.76003 105.845 7.88783 106.108 8.14433C106.436 8.46383 106.6 8.93903 106.6 9.56723V12.0899Z" fill="white"/>
<path d="M111.883 9.76778C111.883 9.93698 111.87 10.0792 111.847 10.1953H108.946C108.959 10.6147 109.097 10.9342 109.366 11.1556C109.612 11.3536 109.928 11.4526 110.316 11.4526C110.745 11.4526 111.136 11.386 111.489 11.2519L111.64 11.9071C111.228 12.0817 110.742 12.169 110.18 12.169C109.506 12.169 108.976 11.9755 108.592 11.5885C108.206 11.2015 108.015 10.6822 108.015 10.0306C108.015 9.39069 108.193 8.85789 108.552 8.43309C108.927 7.97949 109.433 7.75269 110.073 7.75269C110.699 7.75269 111.174 7.97949 111.496 8.43309C111.755 8.79309 111.883 9.23858 111.883 9.76778ZM110.96 9.52388C110.968 9.24398 110.904 9.00279 110.773 8.79939C110.605 8.53749 110.349 8.40609 110.003 8.40609C109.687 8.40609 109.43 8.53389 109.233 8.79039C109.072 8.99469 108.977 9.23858 108.946 9.52388H110.96Z" fill="white"/>
</svg>
