<svg width="72" height="72" viewBox="0 0 72 72" fill="none" xmlns="http://www.w3.org/2000/svg">
<circle opacity="0.1" cx="36" cy="36" r="36" fill="white"/>
<path d="M38.5851 28.5781C38.5567 29.7155 37.7623 31.3363 36.4289 31.3363C35.6062 31.3363 34.9253 30.6538 34.9253 29.8292V29.8008C34.8969 28.4643 34.3011 27.2985 33.3649 26.4739C32.6556 25.8767 31.7761 25.4786 30.8115 25.3649C31.6343 24.5118 32.7975 24 34.0741 24C35.6913 24 37.1665 24.9384 38.0177 26.3033C38.4148 26.9857 38.6134 27.8103 38.5851 28.5781Z" fill="white"/>
<path d="M33.3081 28.6918C34.0174 29.6017 34.443 31.3363 33.4216 32.1893C32.7691 32.7296 31.8329 32.6443 31.2938 32.0187C30.4143 31.0235 29.1944 30.5117 27.9745 30.4832C27.0382 30.4548 26.102 30.7392 25.3076 31.2794C25.3927 30.1136 25.9318 28.9477 26.9247 28.1231C28.2014 27.071 29.9888 26.7582 31.5208 27.3838C32.23 27.6397 32.8542 28.0947 33.3081 28.6918Z" fill="white"/>
<path d="M29.3359 32.1609C30.4424 32.3884 31.9177 33.4689 31.6907 34.7769C31.5489 35.6016 30.7545 36.1418 29.9317 35.9997H29.9034C28.5983 35.8006 27.3216 36.1987 26.3854 36.9665C25.6761 37.5352 25.1087 38.3598 24.8534 39.2982C24.1725 38.3314 23.8604 37.1086 24.059 35.8291C24.3711 34.2082 25.5343 32.8434 27.123 32.3031C27.8323 32.0756 28.6267 32.0187 29.3359 32.1609Z" fill="white"/>
<path d="M28.5128 37.393C29.5058 36.8527 31.3215 36.739 31.974 37.8764C32.3996 38.5873 32.1442 39.5256 31.435 39.9522C30.3002 40.6346 29.5909 41.7436 29.3356 42.9663C29.1653 43.8762 29.2504 44.843 29.676 45.7245C28.5412 45.4402 27.4915 44.7009 26.8673 43.5919C26.0446 42.1417 26.0729 40.3503 26.9241 38.9285C27.3212 38.2745 27.8603 37.7342 28.5128 37.393Z" fill="white"/>
<path d="M31.2365 41.9142C31.662 40.8621 32.9671 39.6109 34.187 40.0659C34.9814 40.3503 35.3786 41.2317 35.0949 41.9995C34.6693 43.2506 34.8395 44.5587 35.4353 45.6392C35.8893 46.4638 36.5701 47.1178 37.4496 47.5444C36.3716 48.0562 35.1232 48.1699 33.9317 47.715C32.3713 47.1463 31.2365 45.7529 30.9811 44.1037C30.896 43.3644 30.9811 42.5966 31.2365 41.9142Z" fill="white"/>
<path d="M36.2304 43.6203C35.8616 42.5398 36.0602 40.7483 37.3085 40.2934C38.1029 40.009 38.954 40.4071 39.2377 41.2033C39.72 42.426 40.6846 43.336 41.8478 43.7909C42.6989 44.1321 43.6919 44.189 44.6281 43.9615C44.1458 45.0421 43.2379 45.9236 42.0464 46.3785C40.486 46.9472 38.6986 46.606 37.4787 45.497C36.9113 44.9568 36.4574 44.3312 36.2304 43.6203Z" fill="white"/>
<path d="M41.1668 41.7151C40.2022 41.118 39.1809 39.6109 39.8617 38.4735C40.2873 37.7626 41.1952 37.5067 41.9328 37.9048C43.096 38.5304 44.401 38.6157 45.5926 38.2176C46.4721 37.9048 47.2665 37.3361 47.8339 36.5399C48.146 37.6773 48.0325 38.9285 47.38 40.0375C46.5572 41.4877 44.9685 42.3692 43.323 42.3123C42.5286 42.3123 41.7626 42.1132 41.1668 41.7151Z" fill="white"/>
<path d="M43.7203 37.0802C42.5855 37.2508 40.8549 36.739 40.6279 35.431C40.4577 34.6348 41.0251 33.8386 41.8478 33.6964H41.8762C43.1813 33.4405 44.231 32.6443 44.8551 31.5922C45.3374 30.796 45.5644 29.8577 45.4793 28.8909C46.4439 29.5449 47.1815 30.597 47.3801 31.8481C47.6638 33.4689 47.0113 35.175 45.7346 36.1987C45.1388 36.6537 44.4296 36.9949 43.7203 37.0802Z" fill="white"/>
<path d="M42.6982 31.905C41.9322 32.7581 40.2867 33.4974 39.2653 32.6443C38.6128 32.104 38.5277 31.1657 39.0668 30.5117C39.8895 29.488 40.2016 28.18 40.003 26.9573C39.8611 26.0473 39.4356 25.1658 38.7547 24.455C39.9179 24.3412 41.1378 24.6824 42.1308 25.5071C43.4075 26.5592 44.0032 28.2937 43.6628 29.9145C43.5209 30.6538 43.1805 31.3647 42.6982 31.905Z" fill="white"/>
</svg>
