<svg width="19" height="15" viewBox="0 0 19 15" fill="none" xmlns="http://www.w3.org/2000/svg">
<path d="M11.0017 9.2879C6.28172 9.2879 1.50172 11.2879 1.00172 13.8779C0.958384 14.1147 0.752454 14.287 0.511716 14.2879H0.411716C0.292212 14.2878 0.177447 14.2412 0.0917157 14.1579C0.0238528 14.0619 -0.00801308 13.9451 0.0017157 13.8279C0.355724 7.98219 5.14622 3.39202 11.0017 3.2879V0.707899C10.9997 0.572313 11.0541 0.441975 11.1517 0.347899L11.3517 0.147899C11.4456 0.0532428 11.5734 0 11.7067 0C11.84 0 11.9678 0.0532428 12.0617 0.147899L17.8517 5.9379C17.9484 6.02863 18.0032 6.15531 18.0032 6.2879C18.0032 6.42049 17.9484 6.54717 17.8517 6.6379L12.0617 12.4279C11.9678 12.5226 11.84 12.5758 11.7067 12.5758C11.5734 12.5758 11.4456 12.5226 11.3517 12.4279L11.1517 12.2279C11.0541 12.1338 10.9997 12.0035 11.0017 11.8679V9.2879Z" fill="white"/>
</svg>
