<svg width="16" height="16" viewBox="0 0 16 16" fill="none" xmlns="http://www.w3.org/2000/svg">
<path d="M8.63815 11.296C8.51325 11.421 8.34379 11.4914 8.16704 11.4915H7.82926C7.6529 11.4895 7.48413 11.4194 7.35815 11.296L2.79815 6.72706C2.7565 6.68575 2.72343 6.63659 2.70087 6.58243C2.6783 6.52827 2.66669 6.47018 2.66669 6.41151C2.66669 6.35283 2.6783 6.29474 2.70087 6.24058C2.72343 6.18642 2.7565 6.13727 2.79815 6.09595L3.42926 5.46484C3.46982 5.42345 3.51822 5.39057 3.57164 5.36812C3.62507 5.34567 3.68243 5.33411 3.74037 5.33411C3.79832 5.33411 3.85568 5.34567 3.90911 5.36812C3.96253 5.39057 4.01093 5.42345 4.05149 5.46484L7.99815 9.4204L11.9448 5.46484C11.9861 5.42318 12.0353 5.39012 12.0895 5.36756C12.1436 5.34499 12.2017 5.33337 12.2604 5.33337C12.319 5.33337 12.3771 5.34499 12.4313 5.36756C12.4855 5.39012 12.5346 5.42318 12.5759 5.46484L13.1982 6.09595C13.2398 6.13727 13.2729 6.18642 13.2954 6.24058C13.318 6.29474 13.3296 6.35283 13.3296 6.41151C13.3296 6.47018 13.318 6.52827 13.2954 6.58243C13.2729 6.63659 13.2398 6.68575 13.1982 6.72706L8.63815 11.296Z" fill="#757a8a"/>
</svg>
