<svg width="16" height="16" viewBox="0 0 16 16" fill="none" xmlns="http://www.w3.org/2000/svg">
<path d="M14 4.00004C14 3.64642 13.8595 3.30728 13.6095 3.05723C13.3594 2.80718 13.0203 2.66671 12.6667 2.66671H12V1.66671C12 1.5783 11.9649 1.49352 11.9024 1.43101C11.8399 1.36849 11.7551 1.33337 11.6667 1.33337H11C10.9116 1.33337 10.8268 1.36849 10.7643 1.43101C10.7018 1.49352 10.6667 1.5783 10.6667 1.66671V2.66671H5.33333V1.66671C5.33333 1.5783 5.29821 1.49352 5.2357 1.43101C5.17319 1.36849 5.08841 1.33337 5 1.33337H4.33333C4.24493 1.33337 4.16014 1.36849 4.09763 1.43101C4.03512 1.49352 4 1.5783 4 1.66671V2.66671H3.33333C2.97971 2.66671 2.64057 2.80718 2.39052 3.05723C2.14048 3.30728 2 3.64642 2 4.00004V12.6667C2 13.0203 2.14048 13.3595 2.39052 13.6095C2.64057 13.8596 2.97971 14 3.33333 14H12.6667C13.0203 14 13.3594 13.8596 13.6095 13.6095C13.8595 13.3595 14 13.0203 14 12.6667V4.00004ZM12.6667 12.6667H3.33333V5.33337H12.6667V12.6667ZM10 8.92004V8.41337C10 8.32497 9.96488 8.24018 9.90237 8.17767C9.83986 8.11516 9.75507 8.08004 9.66667 8.08004H8.58667V7.00004C8.58667 6.91164 8.55155 6.82685 8.48904 6.76434C8.42652 6.70183 8.34174 6.66671 8.25333 6.66671H7.74667C7.65826 6.66671 7.57348 6.70183 7.51096 6.76434C7.44845 6.82685 7.41333 6.91164 7.41333 7.00004V8.08004H6.33333C6.24493 8.08004 6.16014 8.11516 6.09763 8.17767C6.03512 8.24018 6 8.32497 6 8.41337V8.92004C6 9.00845 6.03512 9.09323 6.09763 9.15574C6.16014 9.21826 6.24493 9.25337 6.33333 9.25337H7.41333V10.3334C7.41333 10.4218 7.44845 10.5066 7.51096 10.5691C7.57348 10.6316 7.65826 10.6667 7.74667 10.6667H8.25333C8.34174 10.6667 8.42652 10.6316 8.48904 10.5691C8.55155 10.5066 8.58667 10.4218 8.58667 10.3334V9.25337H9.66667C9.75507 9.25337 9.83986 9.21826 9.90237 9.15574C9.96488 9.09323 10 9.00845 10 8.92004Z" fill="currentColor"/>
</svg>
