<svg width="16" height="16" viewBox="0 0 16 16" fill="none" xmlns="http://www.w3.org/2000/svg">
<path d="M12.6667 2.66671H12V1.66671C12 1.5783 11.9649 1.49352 11.9024 1.43101C11.8399 1.36849 11.7551 1.33337 11.6667 1.33337H11C10.9116 1.33337 10.8268 1.36849 10.7643 1.43101C10.7018 1.49352 10.6667 1.5783 10.6667 1.66671V2.66671H5.33333V1.66671C5.33333 1.5783 5.29821 1.49352 5.2357 1.43101C5.17319 1.36849 5.08841 1.33337 5 1.33337H4.33333C4.24493 1.33337 4.16014 1.36849 4.09763 1.43101C4.03512 1.49352 4 1.5783 4 1.66671V2.66671H3.33333C2.97971 2.66671 2.64057 2.80718 2.39052 3.05723C2.14048 3.30728 2 3.64642 2 4.00004V12.6667C2 13.0203 2.14048 13.3595 2.39052 13.6095C2.64057 13.8596 2.97971 14 3.33333 14H12.6667C13.0203 14 13.3594 13.8596 13.6095 13.6095C13.8595 13.3595 14 13.0203 14 12.6667V4.00004C14 3.64642 13.8595 3.30728 13.6095 3.05723C13.3594 2.80718 13.0203 2.66671 12.6667 2.66671ZM12.6667 12.6667H3.33333V5.33337H12.6667V12.6667ZM5 10.6667H8.33333C8.42174 10.6667 8.50652 10.6316 8.56904 10.5691C8.63155 10.5066 8.66667 10.4218 8.66667 10.3334V9.66671C8.66667 9.5783 8.63155 9.49352 8.56904 9.43101C8.50652 9.36849 8.42174 9.33337 8.33333 9.33337H5C4.91159 9.33337 4.82681 9.36849 4.7643 9.43101C4.70179 9.49352 4.66667 9.5783 4.66667 9.66671V10.3334C4.66667 10.4218 4.70179 10.5066 4.7643 10.5691C4.82681 10.6316 4.91159 10.6667 5 10.6667ZM5 8.00004H11C11.0884 8.00004 11.1732 7.96492 11.2357 7.90241C11.2982 7.8399 11.3333 7.75511 11.3333 7.66671V7.00004C11.3333 6.91164 11.2982 6.82685 11.2357 6.76434C11.1732 6.70183 11.0884 6.66671 11 6.66671H5C4.91159 6.66671 4.82681 6.70183 4.7643 6.76434C4.70179 6.82685 4.66667 6.91164 4.66667 7.00004V7.66671C4.66667 7.75511 4.70179 7.8399 4.7643 7.90241C4.82681 7.96492 4.91159 8.00004 5 8.00004Z" fill="#757a8a"/>
</svg>
