<svg width="16" height="16" viewBox="0 0 16 16" fill="none" xmlns="http://www.w3.org/2000/svg">
  <path d="M6.03722 12.4039C6.09707 12.4677 6.16936 12.5185 6.24963 12.5532C6.32989 12.588 6.41642 12.6059 6.50389 12.6059C6.59135 12.6059 6.67788 12.588 6.75815 12.5532C6.83841 12.5185 6.9107 12.4677 6.97055 12.4039L14.4639 4.91055C14.5264 4.84858 14.576 4.77485 14.6098 4.69361C14.6437 4.61237 14.6611 4.52523 14.6611 4.43722C14.6611 4.34921 14.6437 4.26208 14.6098 4.18084C14.576 4.0996 14.5264 4.02586 14.4639 3.96389L13.7572 3.25722C13.6326 3.13507 13.4651 3.06665 13.2906 3.06665C13.116 3.06665 12.9485 3.13507 12.8239 3.25722L6.50389 9.57722L4.50389 7.59055C4.44403 7.52678 4.37174 7.47595 4.29148 7.4412C4.21122 7.40646 4.12468 7.38853 4.03722 7.38853C3.94976 7.38853 3.86322 7.40646 3.78296 7.4412C3.7027 7.47595 3.63041 7.52678 3.57055 7.59055L2.86389 8.29722C2.8014 8.3592 2.7518 8.43293 2.71796 8.51417C2.68411 8.59541 2.66669 8.68255 2.66669 8.77056C2.66669 8.85856 2.68411 8.9457 2.71796 9.02694C2.7518 9.10818 2.8014 9.18191 2.86389 9.24389L6.03722 12.4039Z" fill="#ffffff"/>
</svg>
