<svg width="14" height="14" viewBox="0 0 14 14" fill="none" xmlns="http://www.w3.org/2000/svg">
<path d="M7 0C5.61553 0 4.26216 0.410543 3.11101 1.17971C1.95987 1.94888 1.06266 3.04213 0.532846 4.32122C0.00303296 5.6003 -0.13559 7.00776 0.134506 8.36563C0.404603 9.7235 1.07129 10.9708 2.05026 11.9497C3.02922 12.9287 4.2765 13.5954 5.63437 13.8655C6.99224 14.1356 8.3997 13.997 9.67879 13.4672C10.9579 12.9373 12.0511 12.0401 12.8203 10.889C13.5895 9.73785 14 8.38447 14 7C14 5.14348 13.2625 3.36301 11.9497 2.05025C10.637 0.737498 8.85652 0 7 0ZM12.3822 6.22222H10.3833C10.34 4.82013 10.0285 3.43931 9.46556 2.15444C10.2416 2.54975 10.9116 3.12547 11.4191 3.83328C11.9266 4.5411 12.2569 5.36033 12.3822 6.22222ZM7.35 12.4444H7H6.65C5.94223 12.0011 5.09445 10.2978 4.98556 7.77778H9.01445C8.87445 10.2822 8.05778 11.9856 7.35 12.4444ZM5.01667 6.22222C5.15667 3.71778 5.97334 2.01444 6.68111 1.55556H7H7.35C8.05778 1.99889 8.90556 3.70222 9.01445 6.22222H5.01667ZM4.53445 2.15444C3.97154 3.43931 3.66 4.82013 3.61667 6.22222H1.61778C1.74313 5.36033 2.07343 4.5411 2.58094 3.83328C3.08845 3.12547 3.75837 2.54975 4.53445 2.15444ZM1.61778 7.77778H3.61667C3.66 9.17987 3.97154 10.5607 4.53445 11.8456C3.75837 11.4502 3.08845 10.8745 2.58094 10.1667C2.07343 9.4589 1.74313 8.63967 1.61778 7.77778ZM9.46556 11.8456C10.0285 10.5607 10.34 9.17987 10.3833 7.77778H12.3822C12.2569 8.63967 11.9266 9.4589 11.4191 10.1667C10.9116 10.8745 10.2416 11.4502 9.46556 11.8456Z" fill="#757a8a"/>
</svg>
