<svg width="16" height="16" viewBox="0 0 16 16" fill="none" xmlns="http://www.w3.org/2000/svg">
<path d="M4.99998 6.33333V13C4.99998 13.0884 4.96486 13.1732 4.90235 13.2357C4.83984 13.2982 4.75505 13.3333 4.66665 13.3333H2.99998C2.91157 13.3333 2.82679 13.2982 2.76428 13.2357C2.70177 13.1732 2.66665 13.0884 2.66665 13V6.33333C2.66665 6.24493 2.70177 6.16014 2.76428 6.09763C2.82679 6.03512 2.91157 6 2.99998 6H4.66665C4.75505 6 4.83984 6.03512 4.90235 6.09763C4.96486 6.16014 4.99998 6.24493 4.99998 6.33333ZM14 8.94C14.0111 8.2394 13.7826 7.55602 13.3521 7.00313C12.9217 6.45024 12.3152 6.06102 11.6333 5.9C11.1693 5.80009 10.6881 5.81271 10.23 5.93681C9.77187 6.06091 9.35011 6.29288 8.99998 6.61333V6.33333C8.99998 6.24493 8.96486 6.16014 8.90235 6.09763C8.83984 6.03512 8.75505 6 8.66665 6H6.99998C6.91157 6 6.82679 6.03512 6.76428 6.09763C6.70177 6.16014 6.66665 6.24493 6.66665 6.33333V13C6.66665 13.0884 6.70177 13.1732 6.76428 13.2357C6.82679 13.2982 6.91157 13.3333 6.99998 13.3333H8.66665C8.75505 13.3333 8.83984 13.2982 8.90235 13.2357C8.96486 13.1732 8.99998 13.0884 8.99998 13V9.24C8.992 8.91565 9.09857 8.59886 9.30095 8.34526C9.50334 8.09167 9.7886 7.9175 10.1066 7.85333C10.2997 7.82 10.4978 7.82964 10.6867 7.88155C10.8756 7.93346 11.0508 8.02637 11.1997 8.15367C11.3487 8.28097 11.4677 8.43953 11.5484 8.61808C11.6291 8.79662 11.6695 8.99075 11.6666 9.18667V13C11.6666 13.0884 11.7018 13.1732 11.7643 13.2357C11.8268 13.2982 11.9116 13.3333 12 13.3333H13.6666C13.7551 13.3333 13.8398 13.2982 13.9023 13.2357C13.9649 13.1732 14 13.0884 14 13V8.94ZM3.66665 2C3.40294 2 3.14515 2.0782 2.92589 2.22471C2.70662 2.37122 2.53572 2.57945 2.43481 2.82309C2.33389 3.06672 2.30749 3.33481 2.35893 3.59345C2.41038 3.8521 2.53737 4.08967 2.72384 4.27614C2.91031 4.46261 3.14789 4.5896 3.40653 4.64105C3.66517 4.69249 3.93326 4.66609 4.17689 4.56517C4.42053 4.46426 4.62876 4.29336 4.77527 4.07409C4.92178 3.85483 4.99998 3.59704 4.99998 3.33333C4.99998 2.97971 4.8595 2.64057 4.60946 2.39052C4.35941 2.14048 4.02027 2 3.66665 2Z" fill="#757a8a"/>
</svg>
