<svg width="13" height="12" viewBox="0 0 13 12" fill="none" xmlns="http://www.w3.org/2000/svg">
<path d="M12.9 10.96L10.2333 8.29331C10.147 8.20489 10.0508 8.12661 9.94667 8.05998L9.28001 7.59998C9.94578 6.77618 10.3115 5.7504 10.3171 4.69122C10.3226 3.63204 9.96774 2.60248 9.31067 1.77172C8.6536 0.940965 7.73347 0.358447 6.70149 0.119898C5.66951 -0.118651 4.58707 0.0009619 3.63207 0.459079C2.67707 0.917197 1.90633 1.68656 1.4465 2.64074C0.986676 3.59492 0.865126 4.67713 1.10183 5.70954C1.33853 6.74195 1.9194 7.66312 2.74897 8.32168C3.57855 8.98023 4.60748 9.33699 5.66667 9.33331C6.72537 9.33362 7.75271 8.97393 8.58001 8.31331L9.08 8.97998C9.13931 9.06583 9.20625 9.14616 9.28001 9.21998L11.9467 11.8866C11.9777 11.9179 12.0145 11.9427 12.0551 11.9596C12.0958 11.9765 12.1393 11.9852 12.1833 11.9852C12.2273 11.9852 12.2709 11.9765 12.3115 11.9596C12.3521 11.9427 12.389 11.9179 12.42 11.8866L12.8867 11.42C12.9476 11.3597 12.983 11.2783 12.9855 11.1926C12.9879 11.107 12.9573 11.0237 12.9 10.96ZM5.66667 7.99998C5.0074 7.99998 4.36294 7.80448 3.81477 7.43821C3.26661 7.07194 2.83937 6.55134 2.58707 5.94225C2.33478 5.33317 2.26877 4.66295 2.39739 4.01634C2.52601 3.36974 2.84347 2.7758 3.30965 2.30962C3.77582 1.84345 4.36977 1.52598 5.01637 1.39736C5.66297 1.26874 6.3332 1.33475 6.94228 1.58704C7.55137 1.83934 8.07197 2.26658 8.43824 2.81474C8.80451 3.36291 9 4.00737 9 4.66664C9 5.5507 8.64882 6.39854 8.02369 7.02367C7.39857 7.64879 6.55073 7.99998 5.66667 7.99998Z" fill="#757a8a"/>
</svg>
