<svg width="14" height="12" viewBox="0 0 14 12" fill="none" xmlns="http://www.w3.org/2000/svg">
<path fill-rule="evenodd" clip-rule="evenodd" d="M13.6667 2.3C13.3221 2.75937 12.9056 3.16008 12.4333 3.48667C12.4333 3.60667 12.4333 3.72667 12.4333 3.85333C12.4352 4.93214 12.2224 6.00055 11.8074 6.99633C11.3924 7.99212 10.7834 8.8954 10.016 9.65356C9.24848 10.4117 8.33784 11.0096 7.33706 11.4125C6.33628 11.8153 5.26537 12.015 4.18666 12C2.92694 12.0042 1.68336 11.7167 0.553325 11.16C0.523512 11.147 0.498158 11.1255 0.480389 11.0983C0.46262 11.071 0.453212 11.0392 0.453325 11.0067V10.9333C0.453325 10.8874 0.471587 10.8433 0.504093 10.8108C0.5366 10.7783 0.580688 10.76 0.626658 10.76C1.86493 10.7192 3.05902 10.2901 4.03999 9.53333C3.4908 9.52228 2.95591 9.35618 2.49706 9.05421C2.0382 8.75224 1.67406 8.32669 1.44666 7.82667C1.43513 7.79926 1.43085 7.76935 1.43422 7.7398C1.43759 7.71026 1.44851 7.68209 1.46592 7.65798C1.48333 7.63388 1.50664 7.61466 1.53363 7.60217C1.56061 7.58968 1.59035 7.58434 1.61999 7.58667C1.96063 7.62089 2.30467 7.5892 2.63333 7.49333C2.03031 7.36822 1.48262 7.0548 1.06924 6.59829C0.655865 6.14178 0.398171 5.56577 0.333325 4.95333C0.331 4.92369 0.336339 4.89395 0.348828 4.86697C0.361318 4.83998 0.380539 4.81667 0.404642 4.79926C0.428746 4.78185 0.456923 4.77094 0.486464 4.76756C0.516005 4.76419 0.545917 4.76847 0.573325 4.78C0.905356 4.92644 1.26378 5.00357 1.62666 5.00667C1.09947 4.66081 0.701689 4.15008 0.495444 3.55427C0.289199 2.95845 0.286109 2.31109 0.486658 1.71333C0.507585 1.65461 0.543401 1.60234 0.590599 1.56162C0.637796 1.52089 0.694759 1.49313 0.75591 1.48103C0.817062 1.46894 0.880306 1.47293 0.939452 1.49261C0.998598 1.5123 1.05162 1.547 1.09333 1.59333C2.55631 3.14965 4.56648 4.07705 6.69999 4.18C6.64534 3.96204 6.61846 3.73804 6.61999 3.51333C6.62975 2.93723 6.81051 2.37702 7.1393 1.90386C7.4681 1.43071 7.93011 1.06594 8.46665 0.855899C9.00318 0.645856 9.59004 0.600014 10.1527 0.724193C10.7153 0.848372 11.2284 1.13697 11.6267 1.55333C12.1819 1.4476 12.7187 1.26118 13.22 0.999999C13.238 0.988768 13.2588 0.982814 13.28 0.982814C13.3012 0.982814 13.322 0.988768 13.34 0.999999C13.3512 1.018 13.3572 1.03878 13.3572 1.06C13.3572 1.08121 13.3512 1.102 13.34 1.12C13.0972 1.67573 12.687 2.14185 12.1667 2.45333C12.6223 2.40052 13.07 2.29308 13.5 2.13333C13.5177 2.12129 13.5386 2.11486 13.56 2.11486C13.5814 2.11486 13.6023 2.12129 13.62 2.13333C13.635 2.14018 13.6483 2.15022 13.659 2.16274C13.6697 2.17527 13.6775 2.18997 13.682 2.20584C13.6864 2.22171 13.6874 2.23835 13.6847 2.25461C13.6821 2.27087 13.6759 2.28636 13.6667 2.3Z" fill="#757a8a"/>
</svg>
