<svg width="407" height="170" viewBox="0 0 407 170" fill="none" xmlns="http://www.w3.org/2000/svg">
<mask id="mask0" mask-type="alpha" maskUnits="userSpaceOnUse" x="12" y="0" width="396" height="159">
<rect x="12" width="396" height="159" fill="url(#paint0_linear)"/>
</mask>
<g mask="url(#mask0)">
<rect opacity="0.75" x="-16" y="29" width="473" height="124" rx="8" fill="white"/>
<rect x="-4" y="124" width="119" height="16" rx="4" fill="#F1F2F5"/>
<rect x="13" y="62" width="49" height="5" rx="2.5" fill="#F1F2F5"/>
<rect x="13" y="77" width="69" height="5" rx="2.5" fill="#F1F2F5"/>
<rect x="13" y="92" width="41" height="5" rx="2.5" fill="#F1F2F5"/>
<rect x="13" y="107" width="49" height="5" rx="2.5" fill="#F1F2F5"/>
<rect x="-4" y="40" width="52" height="10" rx="5" fill="#F1F2F5"/>
<rect x="54" y="40" width="20" height="10" rx="5" fill="#F1F2F5"/>
<rect x="290" y="124" width="119" height="16" rx="4" fill="#F1F2F5"/>
<path d="M300.939 62.6351L296.573 66.9399C296.535 66.9784 296.482 67 296.427 67C296.372 67 296.32 66.9784 296.281 66.9399L294.061 64.751C294.022 64.7128 294 64.6609 294 64.6068C294 64.5527 294.022 64.5008 294.061 64.4626L294.349 64.1783C294.388 64.1399 294.441 64.1183 294.495 64.1183C294.55 64.1183 294.603 64.1399 294.642 64.1783L296.425 65.9368L300.358 62.0584C300.44 61.9805 300.569 61.9805 300.651 62.0584L300.939 62.3468C300.978 62.3849 301 62.4368 301 62.4909C301 62.5451 300.978 62.597 300.939 62.6351Z" fill="#BDBFC7"/>
<rect x="307" y="62" width="49" height="5" rx="2.5" fill="#F1F2F5"/>
<path d="M300.939 77.6351L296.573 81.9399C296.535 81.9784 296.482 82 296.427 82C296.372 82 296.32 81.9784 296.281 81.9399L294.061 79.751C294.022 79.7128 294 79.6609 294 79.6068C294 79.5527 294.022 79.5008 294.061 79.4626L294.349 79.1783C294.388 79.1399 294.441 79.1183 294.495 79.1183C294.55 79.1183 294.603 79.1399 294.642 79.1783L296.425 80.9368L300.358 77.0584C300.44 76.9805 300.569 76.9805 300.651 77.0584L300.939 77.3468C300.978 77.3849 301 77.4368 301 77.4909C301 77.5451 300.978 77.597 300.939 77.6351Z" fill="#BDBFC7"/>
<rect x="307" y="77" width="69" height="5" rx="2.5" fill="#F1F2F5"/>
<path d="M300.939 92.6351L296.573 96.9399C296.535 96.9784 296.482 97 296.427 97C296.372 97 296.32 96.9784 296.281 96.9399L294.061 94.751C294.022 94.7128 294 94.6609 294 94.6068C294 94.5527 294.022 94.5008 294.061 94.4626L294.349 94.1783C294.388 94.1399 294.441 94.1183 294.495 94.1183C294.55 94.1183 294.603 94.1399 294.642 94.1783L296.425 95.9368L300.358 92.0584C300.44 91.9805 300.569 91.9805 300.651 92.0584L300.939 92.3468C300.978 92.3849 301 92.4368 301 92.4909C301 92.5451 300.978 92.597 300.939 92.6351Z" fill="#BDBFC7"/>
<rect x="307" y="92" width="41" height="5" rx="2.5" fill="#F1F2F5"/>
<path d="M300.939 107.635L296.573 111.94C296.535 111.978 296.482 112 296.427 112C296.372 112 296.32 111.978 296.281 111.94L294.061 109.751C294.022 109.713 294 109.661 294 109.607C294 109.553 294.022 109.501 294.061 109.463L294.349 109.178C294.388 109.14 294.441 109.118 294.495 109.118C294.55 109.118 294.603 109.14 294.642 109.178L296.425 110.937L300.358 107.058C300.44 106.981 300.569 106.981 300.651 107.058L300.939 107.347C300.978 107.385 301 107.437 301 107.491C301 107.545 300.978 107.597 300.939 107.635Z" fill="#BDBFC7"/>
<rect x="307" y="107" width="49" height="5" rx="2.5" fill="#F1F2F5"/>
<rect x="290" y="40" width="52" height="10" rx="5" fill="#F1F2F5"/>
<rect x="348" y="40" width="20" height="10" rx="5" fill="#F1F2F5"/>
<g filter="url(#filter0_d)">
<rect x="131" y="16" width="143" height="124" rx="8" fill="#578DFF"/>
</g>
<mask id="mask1" mask-type="alpha" maskUnits="userSpaceOnUse" x="272" y="31" width="30" height="30">
<path d="M286.735 31C286.911 39.055 293.408 45.5523 301.463 45.728V45.7352C293.408 45.9109 286.911 52.4082 286.735 60.4632H286.728C286.552 52.4082 280.055 45.9109 272 45.7352V45.728C280.055 45.5523 286.552 39.055 286.728 31H286.735Z" fill="#FE5E41"/>
</mask>
<g mask="url(#mask1)">
<path d="M286.735 31C286.911 39.055 293.408 45.5523 301.463 45.728V45.7352C293.408 45.9109 286.911 52.4082 286.735 60.4632H286.728C286.552 52.4082 280.055 45.9109 272 45.7352V45.728C280.055 45.5523 286.552 39.055 286.728 31H286.735Z" fill="#578DFF"/>
<path opacity="0.1" d="M280.104 43.6193L279.753 43.7232C279.986 44.1549 280.278 44.1243 279.923 44.3224C280.104 43.6193 278.831 43.8869 279.027 43.1957L278.793 43.2738C278.848 43.2815 278.839 43.3227 278.895 43.3437C278.805 43.3799 278.751 43.3855 278.71 43.3764L280.242 40.8416C280.364 40.9764 279.965 41.3938 280.307 41.586C280.461 41.6503 280.62 41.6336 280.593 41.5023C280.645 41.6176 280.686 41.7475 280.752 41.8613C280.838 41.9193 280.907 41.8048 280.807 41.7482C280.928 41.8831 281.062 42.0032 281.195 42.1234L281.207 42.1087C281.194 42.2442 281.234 42.4949 281.26 42.6129C281.433 42.6081 281.248 42.5068 281.324 42.4586L281.465 42.7792C281.672 42.7039 281.573 42.4057 281.388 42.3043C281.715 42.0957 281.737 42.1739 281.776 42.2905C281.816 42.4204 281.862 42.6034 282.238 42.6043C282.177 42.5302 282.114 42.4429 282.052 42.3689C282.431 42.1414 282.537 42.3851 282.948 42.342C282.808 42.4104 282.054 42.5162 282.225 42.8605C282.332 42.8627 282.445 42.9179 282.522 43.1379C282.66 42.9222 282.783 43.0703 282.958 43.1995L283.128 42.9C283.284 43.1117 283.177 43.2436 283.212 43.4545C283.467 43.5754 283.646 43.3688 283.818 43.2167C284.226 43.4019 283.342 43.4141 283.753 43.7466C284.137 43.8271 284.284 44.0799 284.554 44.4809C284.84 44.518 284.626 44.2721 284.758 44.2449L284.808 44.6018C284.864 44.6228 284.882 44.5404 284.905 44.4978C285.019 44.6871 284.735 44.7973 284.947 45.0299C284.824 45.3916 285.764 44.8906 285.862 45.4437C285.992 45.4032 285.935 45.2349 286.032 45.1442C286.327 45.6499 286.302 45.5451 286.48 46.0899L286.909 46.0852C286.542 46.1639 286.682 46.6053 286.8 46.9685C286.659 47.0236 286.53 47.0773 286.452 47.0989L286.763 47.5089C286.841 47.4873 286.855 47.3651 286.865 47.2031C286.883 47.2415 286.887 47.2813 286.891 47.3211C287.103 47.2989 287.134 47.081 287.125 46.8673C287.034 46.8903 286.957 46.9252 286.867 46.9615C286.868 46.7199 286.896 46.4755 287.027 46.3143C287.032 46.3673 287.065 46.4176 287.111 46.4798C287.118 46.4121 287.125 46.3576 287.151 46.3415C287.189 46.3241 287.184 46.4051 287.21 46.5231L287.503 46.2509L287.451 46.3906L288.107 46.5096C288.149 46.6527 288.191 46.7959 288.221 46.9537C288.264 47.1101 288.293 47.2547 288.364 47.4216C288.506 47.7555 288.63 48.0376 288.855 48.2689C288.909 48.1425 288.993 48.0532 289.107 47.9876C289.221 47.922 289.376 47.8655 289.526 47.7559C289.248 47.7984 289.143 47.6887 289.004 47.5155C288.88 47.3541 288.709 47.1306 288.469 47.0216C288.722 47.1292 288.773 46.9763 288.737 46.8862C288.965 47.144 289.165 47.3913 289.338 47.6281C289.545 47.4319 289.684 47.6052 290.014 47.6779C289.339 47.8962 290.248 48.2436 290.354 48.4874C290.472 48.4616 290.587 48.4093 290.595 48.3548C290.614 48.2857 290.525 48.2012 290.299 48.0907C290.528 48.1069 290.641 48.1621 290.675 48.2257C290.722 48.2878 290.69 48.3716 290.644 48.4435C290.58 48.5978 290.445 48.7193 290.881 48.7809C290.794 48.7229 290.712 48.7047 290.8 48.6552C290.797 48.7494 290.955 48.8536 291.151 48.927C291.333 49.0018 291.554 49.0591 291.615 48.9991L291.528 48.9411C291.712 49.0292 291.926 49.1542 292.142 49.2926C292.243 49.3625 292.344 49.4323 292.444 49.4889C292.488 49.5246 292.532 49.5602 292.575 49.5826L292.699 49.6231C292.714 49.635 292.743 49.6588 292.745 49.672C292.832 49.8641 292.794 50.0156 292.405 50.0161C292.514 50.0315 293.359 50.0235 293.506 50.0215L292.466 50.211L292.229 50.2493L292.124 50.2737C292.071 50.2792 292.003 50.2729 291.935 50.2666C291.679 50.2532 291.409 50.2412 291.125 50.2174C291.37 50.2454 291.711 50.3035 292.107 50.3693C292.203 50.3861 292.298 50.4029 292.394 50.4197C292.462 50.4261 292.516 50.4338 292.584 50.4401C292.719 50.4527 292.842 50.4667 292.964 50.4807C293.466 50.5354 293.897 50.5573 293.953 50.4442C294.122 50.5204 294.295 50.6363 294.241 50.7627C294.113 50.6956 293.239 50.5458 293.272 50.6094C293.715 50.7373 293.84 50.7779 293.952 50.8198C294.064 50.8618 294.205 50.9275 294.554 51.0652C294.456 51.0219 294.223 50.9792 294.022 50.9735C293.833 50.9664 293.7 50.9803 293.787 51.0383C293.881 51.0419 294.593 51.1818 294.63 51.1511C294.462 51.209 294.319 51.2508 294.202 51.2899C294.238 51.2459 294.804 51.4012 295.072 51.5207C294.988 51.4893 295.048 51.55 295.137 51.6346C295.181 51.6702 295.227 51.7191 295.271 51.7547C295.236 51.812 295.187 51.8573 295.15 51.888L295.151 51.7672L295.148 51.7407C295.147 51.7274 295.147 51.7274 295.132 51.7156L295.06 51.6694C295.075 51.6813 295.09 51.6932 295.104 51.7051L295.119 51.717L295.107 51.7316L295.082 51.7477C295.058 51.777 295.033 51.793 294.996 51.8237C294.934 51.8705 294.869 51.8907 294.804 51.9109C294.661 51.9528 294.488 51.9709 294.328 51.9743C293.98 51.9839 293.629 51.967 293.371 52.0611C293.577 52.1066 294.351 52.3206 294.22 52.4819C293.987 52.4392 293.45 52.3077 292.815 52.1328C292.774 52.1237 292.733 52.1146 292.691 52.1055C292.622 52.0859 292.552 52.0531 292.483 52.0335C292.343 51.9811 292.19 51.93 292.05 51.8776C291.799 51.7832 291.533 51.677 291.267 51.5707C290.778 51.3806 290.4 51.2324 290.176 51.1485L290.548 51.3644C290.296 51.27 290.06 51.1875 289.822 51.0918C290.118 51.235 290.515 51.4349 290.979 51.6411C291.219 51.7502 291.458 51.8592 291.724 51.9654C291.795 51.9983 291.864 52.0179 291.921 52.0521L292.02 52.0955C292.034 52.1073 292.047 52.1059 292.061 52.1046L292.089 52.115C292.172 52.1465 292.27 52.1766 292.353 52.208C293.062 52.4423 293.695 52.5906 294.06 52.6194C294.061 52.7534 294.262 52.7591 294.003 52.84C294.137 52.9734 294.442 52.9414 294.519 52.9066C294.384 53.028 294.26 53.1215 294.136 53.215C293.908 53.0913 293.677 53.0619 293.444 53.0192C293.227 52.9884 292.966 52.9352 292.765 52.8087C292.984 52.8528 293.188 52.8718 293.379 52.9054C293.569 52.9257 293.759 52.946 293.947 52.9531C293.72 52.8294 293.304 52.6986 292.861 52.5707C292.64 52.5133 292.418 52.4427 292.225 52.3958C292.033 52.3489 291.856 52.3272 291.749 52.3251C291.782 52.3886 292.051 52.5214 292.306 52.6556C292.575 52.7884 292.843 52.9079 292.929 52.9659C292.691 52.8702 292.121 52.8092 292.197 52.8951C292.363 52.9447 292.53 52.9944 292.683 53.0454C292.66 53.088 292.579 53.0831 292.484 53.0663C292.36 53.039 292.222 52.9998 292.082 52.9474C291.806 52.8691 291.57 52.7998 291.603 52.9842C291.576 52.987 291.581 53.0268 291.586 53.0799C291.589 53.1064 291.605 53.1315 291.608 53.1581C291.611 53.1846 291.613 53.2111 291.615 53.2244C291.624 53.3173 291.59 53.3745 291.444 53.2558C291.327 53.0399 290.823 52.583 290.281 52.1436C290.134 52.0248 290.002 51.9179 289.87 51.811C289.725 51.7055 289.592 51.5853 289.461 51.4917C289.199 51.2912 288.98 51.1263 288.851 51.0459C288.852 51.0592 288.903 51.1612 288.917 51.2939C288.943 51.4119 288.945 51.5592 288.983 51.6626C289.054 51.8295 289.319 52.0566 289.623 52.2662C289.915 52.4905 290.23 52.6854 290.273 52.8419C290.155 52.7336 289.87 52.5756 289.771 52.5323C289.685 52.6084 290.157 52.8809 289.718 52.7927C289.314 52.3924 288.976 52.7498 289.265 52.4378C289.043 52.3672 288.977 52.3741 288.899 52.3957C288.82 52.4174 288.743 52.4522 288.526 52.4214C288.526 52.3006 288.302 52.0827 288.078 51.8647C287.856 51.66 287.633 51.4553 287.492 51.3896C287.543 51.4916 287.514 51.6019 287.506 51.6564C286.967 51.6324 286.617 51.7495 286.102 51.6962C286.044 51.7828 285.783 51.8504 285.867 52.0159C285.819 51.9405 285.779 51.8106 285.642 51.7847C285.523 51.9313 285.605 51.9495 285.663 51.9837C285.733 52.0166 285.804 52.0494 285.716 52.233C285.72 52.018 285.439 51.8998 285.222 51.7482C285.204 51.5757 285.325 51.5765 285.466 51.6422C285.605 51.6946 285.739 51.8148 285.828 51.8993C285.844 51.6696 285.793 51.4335 285.608 51.2114C285.424 50.9893 285.107 50.781 284.715 50.621C284.091 50.4315 284.61 50.9002 284.481 50.8199C284.251 50.8037 284.057 50.7436 283.873 50.6555C283.69 50.5674 283.503 50.4528 283.33 50.3369C283.158 50.2341 282.987 50.1314 282.806 50.0699C282.638 50.007 282.463 49.9985 282.308 50.055C282.282 50.1918 282.461 50.3609 282.653 50.5286C282.843 50.683 283.034 50.8374 283.127 50.9617C283.379 51.0561 283.455 51.0212 283.531 50.9731C283.606 50.9249 283.667 50.8649 283.804 50.8908C283.727 50.9257 283.664 50.9592 283.601 51.0059C283.816 51.131 284.095 51.2359 284.168 51.1612C284.14 51.2848 283.83 51.2637 283.476 51.2202C283.123 51.1768 282.689 51.1284 282.607 51.2443C282.351 51.1101 281.987 50.9605 281.865 50.8257L282.142 50.904C282.034 50.7678 281.808 50.6574 281.596 50.5588C281.384 50.4603 281.202 50.3855 281.251 50.3401C280.943 50.2115 280.563 50.05 280.215 49.9256C279.867 49.8011 279.55 49.727 279.448 49.7779L280.11 50.2049C279.896 50.0798 279.98 49.9904 280.331 50.1414C280.079 50.0338 280.131 50.149 280.126 50.23C280.121 50.311 280.071 50.3431 279.42 50.0223C279.344 49.9364 279.268 49.8505 279.205 49.7631C278.857 49.6387 278.394 49.4458 277.935 49.2926C277.617 49.2052 277.432 49.2247 277.541 49.3742C277.196 49.1555 277.21 49.1541 277.208 49.1408C277.207 49.1275 277.217 49.0996 276.742 48.7873C276.987 48.9494 277.113 49.0032 277.196 49.0214C277.278 49.0396 277.287 48.9984 277.296 48.9572C277.488 48.9908 277.663 48.9992 277.844 49.0608C278.023 49.109 278.194 49.1985 278.387 49.3794C278.036 49.1076 278.113 49.0728 278.218 49.0484C278.323 49.024 278.456 49.0101 278.354 48.8061C278.556 48.9459 278.581 49.0506 278.956 49.0515C279.041 49.0962 279.168 49.15 279.24 49.1962C279.253 49.1948 279.253 49.1948 279.253 49.1948L279.254 49.208C279.31 49.229 279.312 49.2423 279.254 49.208C279.232 49.2506 279.265 49.3142 279.34 49.3868C280.061 49.7405 280.675 49.8371 281.097 50.0209C281.255 49.991 280.797 49.8511 280.744 49.7226L281.377 50.005C281.214 49.8611 281.231 49.7654 281.195 49.6753C281.159 49.5852 281.083 49.4993 280.652 49.3567L281.236 49.4296C281.412 49.3172 281.87 49.3363 282.276 49.495C282.395 49.4824 282.635 49.5915 282.789 49.6558C282.944 49.7201 283.015 49.7662 282.816 49.653L283.825 49.9363L283.805 49.8713C284.239 49.9197 284.739 50.0819 285.192 50.182C285.632 50.2834 286.162 50.3486 286.424 50.1601C286.509 50.2049 286.594 50.2496 286.705 50.2783C286.732 50.2888 286.759 50.286 286.787 50.2965C286.8 50.2951 286.815 50.307 286.828 50.3056L286.841 50.3042C286.868 50.3014 286.895 50.2986 286.92 50.2826C286.926 50.2148 286.932 50.1471 286.939 50.0794C286.969 50.1164 287.018 50.071 287.055 50.0403C287.092 50.0096 287.104 49.995 287.17 50.1088C287.086 49.8225 287.082 49.7827 287.152 49.8155C287.21 49.8498 287.355 49.9553 287.336 49.9036L287.649 50.2061C287.716 50.1991 287.886 50.2886 288.196 50.4305L288.575 50.7127C288.802 50.8364 288.852 50.8043 288.844 50.7247C288.837 50.6584 288.76 50.5592 288.883 50.5865C288.67 50.4747 288.673 50.5012 288.76 50.5592C288.541 50.3943 288.483 50.3468 288.552 50.3664C288.619 50.3727 288.788 50.4489 288.997 50.5209C289.206 50.5929 289.429 50.6768 289.566 50.7027C289.69 50.73 289.727 50.6993 289.499 50.5756C289.805 50.6777 289.773 50.6274 289.617 50.5498C289.604 50.5512 289.591 50.5526 289.563 50.5421C289.563 50.5421 289.561 50.5288 289.575 50.5274C289.475 50.4708 289.362 50.4156 289.247 50.3471C289.416 50.4233 289.544 50.4904 289.588 50.526C289.641 50.5205 289.79 50.5317 290.049 50.5716L289.226 50.2689C289.239 50.2675 289.239 50.2675 289.252 50.2661C288.97 50.1347 289.692 50.3676 290.307 50.5983C290.47 50.6214 290.675 50.6536 290.907 50.6963C290.225 50.4593 290.374 50.4705 290.506 50.4566C290.574 50.4629 290.612 50.4455 289.84 50.2447C290.529 50.414 290.091 50.2051 291.406 50.4696C291.227 50.4213 291.117 50.3926 291.146 50.4164C290.895 50.322 290.658 50.2395 290.942 50.2634L289.983 50.0688C290.336 50.1123 290.675 50.1439 290.985 50.1649C290.324 49.9929 290.01 49.9453 289.455 49.8961C289.845 49.9089 289.869 49.8796 289.907 49.8621C289.946 49.8447 289.997 49.8258 290.288 49.782L289.829 49.7497C289.799 49.7259 289.904 49.7015 289.954 49.6694C290.005 49.6373 290.002 49.6108 289.799 49.5918C289.28 49.512 289.053 49.3883 288.783 49.2422C288.653 49.1619 288.511 49.0829 288.343 49.02C288.189 48.9557 288.01 48.9074 287.834 48.899C288.167 48.7434 288.046 48.7426 287.913 48.7566C287.767 48.7719 287.638 48.8123 287.807 48.6336C287.668 48.7152 287.564 48.7529 287.524 48.8779C287.505 48.8262 287.476 48.8024 287.434 48.7934C287.42 48.7815 287.393 48.7843 287.38 48.7856L287.353 48.7884C287.339 48.7766 287.312 48.7793 287.297 48.7675C287.143 48.7031 287.029 48.6347 287.001 48.3693C286.876 48.4628 286.971 48.6004 286.883 48.65C286.864 48.5983 286.823 48.4684 286.735 48.5179C286.646 48.5675 286.722 48.6534 286.76 48.7567C286.369 48.4891 286.555 48.0807 286.756 47.6974C286.439 47.7441 286.363 47.6582 286.355 47.3237C286.214 47.3921 286.019 47.4527 286.241 47.6441C286.086 47.5798 285.265 47.2904 285.421 46.9923C285.332 47.0418 285.21 46.8937 285.191 46.8421C284.863 46.6618 284.812 46.6806 284.52 46.4563L284.641 46.4571C284.73 46.0318 284.428 46.2244 284.206 46.0197L284.197 46.0609C283.462 45.9636 284.02 45.7843 283.276 45.7281L283.443 45.5229C283.671 45.0161 282.768 45.4863 282.541 45.1077L282.737 45.0604C282.655 44.7873 281.832 45.3833 281.611 45.3259C281.546 45.3461 281.635 45.4307 281.669 45.4942C281.008 45.4562 281.783 45.1738 281.469 44.8713C281.307 44.9822 281.302 45.3181 281.046 45.1839C280.941 45.2083 280.849 44.9632 280.716 44.7222C280.583 44.4812 280.411 44.2444 280.146 44.2722C280.301 44.2158 280.454 44.146 280.352 43.942C280.247 43.8324 279.989 43.8057 279.782 43.747C279.561 43.6896 279.375 43.575 279.415 43.316C279.362 43.3215 279.323 43.339 279.3 43.3683C279.18 43.1259 278.828 42.7068 278.893 42.4317C278.767 42.512 278.661 42.5231 278.579 42.5049L276.085 41.8809L279.482 41.0152C279.926 40.9015 280.478 41.9436 280.692 41.2908L281.335 41.5453L281.34 41.4643C281.779 41.5524 281.87 41.7843 281.962 42.0162C282.08 41.9904 282.03 41.9017 282.039 41.8605C282.701 41.8985 282.759 41.946 283.152 42.495L283.288 42.2528C283.388 42.4435 284.295 42.1338 284.813 42.6026C284.811 42.5761 284.818 42.5216 284.786 42.4713C285.081 42.7221 285.544 42.6602 285.92 42.661C286.295 42.6619 286.597 42.7242 286.609 43.2193L287.007 43.5665C286.395 43.4831 286.999 43.9966 286.712 44.0803C286.925 44.1921 287.383 43.9563 287.116 43.8368L287.066 43.8689C287.079 43.3577 287.844 43.8678 287.903 43.5397C288.193 43.6166 288.48 43.667 288.766 43.7041C288.916 43.7286 289.051 43.7413 289.2 43.7525L289.273 43.8119C289.3 43.8091 289.313 43.8077 289.341 43.8182C289.381 43.814 289.422 43.8231 289.462 43.819C289.77 43.8135 289.994 43.7766 290.224 43.7928C290.307 43.945 290.375 44.0854 290.444 44.2258L290.673 44.242C290.664 44.1491 290.462 43.8885 290.341 43.8878C290.287 43.7593 290.375 43.8305 290.507 43.9374C290.639 44.0443 290.816 44.2001 290.862 44.249C290.948 44.1729 290.759 44.0318 290.612 43.913C290.452 43.7957 290.32 43.6888 290.347 43.686L290.473 43.7398L290.505 43.7901C290.768 43.9906 290.992 44.2086 291.166 44.2038C291.171 44.1228 290.88 43.9118 290.892 43.8971C290.848 43.8615 290.847 43.8482 290.932 43.8929C290.985 43.8874 291.038 43.8818 291.09 43.863C291.251 43.9936 291.386 44.127 291.519 44.2472C291.902 44.4485 291.786 44.2327 292.262 44.6791C291.904 44.341 292.059 44.2845 292.323 44.2434C292.574 44.2037 292.946 44.1647 292.759 44.0501C293.131 44.1453 293.482 44.1622 293.395 44.1042C293.39 44.0511 293.274 43.9694 293.143 43.8757C293.355 43.9743 294.342 44.3001 294.023 44.0786C293.333 43.8961 292.998 43.7702 292.787 43.6717C292.618 43.5955 292.517 43.5256 292.348 43.4494C292.192 43.3719 291.968 43.288 291.568 43.1823C292.011 43.3103 291.964 43.2482 291.957 43.1818C291.955 43.1553 291.965 43.1274 292.045 43.119C292.124 43.1107 292.274 43.1352 292.577 43.2107C292.436 43.145 292.3 43.1191 292.136 43.096C291.973 43.0729 291.783 43.0526 291.575 42.9938C291.729 42.9241 291.457 42.7647 291.205 42.6571C291.078 42.6033 290.952 42.5494 290.826 42.4956C290.712 42.4404 290.641 42.3943 290.594 42.3321C290.646 42.3133 290.724 42.2917 290.802 42.2701C290.88 42.2484 290.957 42.2136 291.005 42.1549C290.751 42.1681 290.525 42.1917 290.331 42.2524C290.328 42.2259 290.439 42.1337 290.498 42.0604C290.558 41.9871 290.552 41.9341 290.357 41.9947C290.434 41.9599 290.563 41.9061 290.542 41.8412C290.391 41.8034 290.281 41.7747 290.167 41.7195C289.998 41.6433 289.825 41.5273 289.667 41.4232C289.337 41.2164 289.029 40.967 288.71 40.7455C288.072 40.2892 287.373 39.893 286.489 39.9052C286.765 39.8494 286.649 39.7677 286.506 39.6754C286.614 39.6908 286.619 39.4758 286.689 39.3746C286.447 39.373 286.192 39.3729 285.952 39.3847C286.007 39.0167 285.34 39.0465 285.426 38.7155L285.588 38.8594C285.512 38.3846 286.329 38.2453 286.534 37.7677C286.576 38.045 286.839 37.9906 287.105 37.9761C287.386 37.9601 287.67 37.984 287.739 38.3925C287.897 38.3626 287.733 38.2054 287.846 38.1265C287.888 38.4038 287.995 38.5267 288.31 38.5876L288.303 38.5213C288.995 38.9852 289.424 38.9805 290.297 39.3719L290.101 39.5534C290.285 39.6415 290.374 39.5919 290.481 39.5941C290.474 40.0375 289.995 39.3097 289.936 39.7719C290.189 39.6247 290.492 39.821 290.779 40.0055C290.923 40.0977 291.065 40.1767 291.218 40.2278C291.401 40.3025 291.579 40.3375 291.732 40.2678C291.935 40.4075 291.845 40.4438 291.767 40.4654C291.69 40.5003 291.613 40.5352 291.787 40.6644C291.854 40.6575 291.932 40.6359 292.012 40.6275C291.992 40.6966 291.972 40.7658 291.938 40.823C292.194 40.9572 292.5 40.9385 292.642 40.8834C292.572 40.8505 292.505 40.7234 292.446 40.6759C292.708 40.7423 292.93 40.947 293.109 41.1161C293.288 41.2852 293.412 41.4465 293.496 41.478L293.014 41.2334C293.12 41.343 293.238 41.4513 293.369 41.545C293.487 41.6532 293.606 41.7615 293.738 41.8684C293.989 42.0836 294.266 42.296 294.516 42.5112C295.018 42.9416 295.466 43.3775 295.579 43.6876L295.301 43.596C295.392 43.8278 295.564 43.9306 295.793 44.0675C296.006 44.1794 296.264 44.3401 296.494 44.6111L296.534 44.6069C296.482 44.6258 296.471 44.6537 296.476 44.6935C296.386 44.7298 296.365 44.7856 296.398 44.8492C296.517 44.8367 296.661 44.9289 296.79 45.0093C296.92 45.0896 297.034 45.1581 297.18 45.1428C297.052 45.1965 296.975 45.2314 296.91 45.2516C296.858 45.2704 296.805 45.276 296.751 45.2683C296.696 45.2606 296.642 45.2529 296.561 45.248C296.547 45.2494 296.519 45.2389 296.493 45.2417C296.453 45.2458 296.425 45.2353 296.372 45.2409C296.278 45.2374 296.17 45.2352 296.049 45.2345L296.199 45.3798C295.807 45.3538 295.682 45.3132 295.288 45.3948C295.771 45.3978 295.435 45.6476 296.026 45.6527C295.92 45.9187 295.519 45.9339 295.211 45.9394C294.89 45.9462 294.659 45.9168 294.876 46.2025C294.388 46.0256 294.445 45.9258 294.588 45.8839C294.73 45.8288 294.957 45.8185 294.794 45.7954C294.759 45.7185 294.578 45.657 294.373 45.6248C294.169 45.5926 293.965 45.5736 293.887 45.5952C293.781 45.6064 293.891 45.7559 293.96 45.9095C294.017 46.0645 294.036 46.2503 293.703 46.2718C293.77 46.2648 293.813 46.3005 293.88 46.2935C293.834 46.3654 293.669 46.329 293.492 46.3073C293.329 46.2842 293.164 46.2478 293.11 46.3742C292.851 46.2002 292.756 46.1967 292.649 46.1945C292.553 46.1777 292.456 46.1477 292.232 45.9297C292.355 45.957 292.479 45.9843 292.601 45.9983C292.725 46.0256 292.847 46.0396 292.956 46.055C292.846 46.0263 292.706 45.9739 292.552 45.9096C292.411 45.8439 292.27 45.7782 292.101 45.702C291.805 45.572 291.554 45.4776 291.362 45.5648C291.466 45.6612 291.723 45.8087 291.892 45.8849C291.858 45.9421 291.747 45.9134 291.65 45.8834C291.553 45.8533 291.456 45.8232 291.395 45.8832C291.568 46.12 291.787 46.1641 292.058 46.1894C292.193 46.202 292.329 46.2146 292.494 46.251C292.576 46.2692 292.658 46.2874 292.742 46.3189C292.826 46.3503 292.91 46.3818 292.995 46.4265C292.986 46.4677 292.92 46.4747 292.824 46.4579C292.728 46.4411 292.603 46.4005 292.506 46.3704C292.312 46.3103 292.204 46.3082 292.512 46.5576C292.103 46.2383 291.943 46.2417 291.744 46.2626C291.558 46.282 291.291 46.2966 290.913 46.0143L291.076 46.2923C290.963 46.2371 290.732 46.0868 290.569 46.0637C290.704 46.1972 290.852 46.3292 291.013 46.4599C290.712 46.2768 290.514 46.3109 290.277 46.3492C290.053 46.3861 289.817 46.4377 289.563 46.3168C290.082 46.4099 290.128 46.338 290.091 46.2346C290.053 46.1312 289.957 45.9804 290.125 45.9225C289.828 45.7792 289.665 45.7561 289.532 45.77C289.401 45.7972 289.315 45.8733 289.216 45.9507C289.117 46.0282 289.004 46.107 288.821 46.153C288.795 46.1558 288.781 46.1572 288.755 46.16C288.741 46.1614 288.728 46.1628 288.703 46.1788C288.663 46.183 288.637 46.1858 288.597 46.19C288.516 46.185 288.42 46.1682 288.323 46.1382C288.436 46.1934 288.799 46.0748 288.637 45.9309C288.464 45.949 288.228 46.0006 288.092 46.1087C287.536 45.9255 288.242 45.8784 288.033 45.6723C287.765 45.9284 287.785 45.4836 287.555 45.3334L287.5 45.5806C286.816 45.5852 287.455 45.0219 286.83 45.074L287.018 45.4568L286.733 45.2988L286.723 45.5949C286.451 45.3015 286.333 45.3273 285.984 45.3236C286.101 45.1638 286.056 44.86 285.78 44.7817C285.548 44.873 285.821 45.0456 285.43 44.8988C285.476 45.0818 285.526 45.3046 285.761 45.1189C285.756 45.1999 285.807 45.3019 285.802 45.3829C285.545 45.4903 285.268 45.2779 285.117 45.2402C285.171 45.2479 285.252 45.2528 285.289 45.2221C285.124 45.0516 284.958 44.8812 284.808 44.7226C284.694 44.7882 284.745 44.8902 284.794 44.9789C284.681 44.9236 284.639 44.7805 284.472 44.7176C284.454 44.934 284.395 45.1414 284.612 45.293L284.13 44.9143C284.071 44.9876 283.771 45.0727 283.821 45.1614C283.476 45.1975 283.194 44.5564 282.741 44.5904C282.737 44.5506 282.705 44.5003 282.632 44.4409C282.249 44.3737 281.834 44.5111 281.468 44.0934L281.109 44.3725C280.78 44.179 281.596 44.0264 281.052 43.7077C280.678 43.4653 280.797 43.9625 280.629 44.0204C280.483 43.7808 280.245 43.2961 279.779 43.4656C279.885 43.5752 280.003 43.5495 280.104 43.6193ZM282.236 42.8459C282.2 42.7558 282.162 42.5183 282.024 42.6132C281.935 42.9177 282.074 42.836 282.236 42.8459ZM287.652 46.906C287.641 46.7998 287.532 46.7844 287.388 46.813C287.446 46.8605 287.532 46.9052 287.652 46.906ZM281.921 49.6931C281.936 49.705 281.936 49.705 281.949 49.7036C282.156 49.6283 282.092 49.6618 281.921 49.6931ZM281.429 49.7313C281.316 49.6761 281.272 49.6405 281.254 49.602C281.383 49.6824 281.535 49.7202 281.682 49.7181C281.716 49.7817 281.693 49.8243 281.429 49.7313ZM291.065 44.0131L291.127 44.0871C291.325 44.1871 291.196 44.1067 291.065 44.0131Z" fill="white"/>
</g>
<rect x="143" y="112" width="119" height="16" rx="4" fill="#FAFCFF"/>
<path d="M153.939 65.6351L149.573 69.9399C149.535 69.9784 149.482 70 149.427 70C149.372 70 149.32 69.9784 149.281 69.9399L147.061 67.751C147.022 67.7128 147 67.6609 147 67.6068C147 67.5527 147.022 67.5008 147.061 67.4626L147.349 67.1783C147.388 67.1399 147.441 67.1183 147.495 67.1183C147.55 67.1183 147.603 67.1399 147.642 67.1783L149.425 68.9368L153.358 65.0584C153.44 64.9805 153.569 64.9805 153.651 65.0584L153.939 65.3468C153.978 65.3849 154 65.4368 154 65.4909C154 65.5451 153.978 65.597 153.939 65.6351Z" fill="#FAFCFF"/>
<rect opacity="0.2" x="160" y="65" width="69" height="5" rx="2.5" fill="white"/>
<path d="M153.939 80.6351L149.573 84.9399C149.535 84.9784 149.482 85 149.427 85C149.372 85 149.32 84.9784 149.281 84.9399L147.061 82.751C147.022 82.7128 147 82.6609 147 82.6068C147 82.5527 147.022 82.5008 147.061 82.4626L147.349 82.1783C147.388 82.1399 147.441 82.1183 147.495 82.1183C147.55 82.1183 147.603 82.1399 147.642 82.1783L149.425 83.9368L153.358 80.0584C153.44 79.9805 153.569 79.9805 153.651 80.0584L153.939 80.3468C153.978 80.3849 154 80.4368 154 80.4909C154 80.5451 153.978 80.597 153.939 80.6351Z" fill="#FAFCFF"/>
<rect opacity="0.2" x="160" y="80" width="41" height="5" rx="2.5" fill="white"/>
<path d="M153.939 95.6351L149.573 99.9399C149.535 99.9784 149.482 100 149.427 100C149.372 100 149.32 99.9784 149.281 99.9399L147.061 97.751C147.022 97.7128 147 97.6609 147 97.6068C147 97.5527 147.022 97.5008 147.061 97.4626L147.349 97.1783C147.388 97.1399 147.441 97.1183 147.495 97.1183C147.55 97.1183 147.603 97.1399 147.642 97.1783L149.425 98.9368L153.358 95.0584C153.44 94.9805 153.569 94.9805 153.651 95.0584L153.939 95.3468C153.978 95.3849 154 95.4368 154 95.4909C154 95.5451 153.978 95.597 153.939 95.6351Z" fill="#FAFCFF"/>
<rect opacity="0.2" x="160" y="95" width="49" height="5" rx="2.5" fill="white"/>
<rect opacity="0.2" x="143" y="28" width="52" height="10" rx="5" fill="white"/>
<rect x="201" y="26" width="43" height="14" rx="4" fill="#F7F8FA"/>
<path d="M205.574 36H206.628V33.5284H209.045V32.6449H206.628V31.0653H209.301V30.1818H205.574V36ZM210.153 36H211.182V33.4347C211.182 32.8807 211.599 32.4886 212.165 32.4886C212.338 32.4886 212.554 32.5199 212.642 32.5483V31.6023C212.548 31.5852 212.386 31.5739 212.273 31.5739C211.773 31.5739 211.355 31.858 211.196 32.3636H211.151V31.6364H210.153V36ZM215.077 36.0852C216.094 36.0852 216.793 35.5881 216.975 34.8295L216.015 34.7216C215.876 35.0909 215.535 35.2841 215.092 35.2841C214.427 35.2841 213.987 34.8466 213.978 34.0994H217.018V33.7841C217.018 32.2528 216.097 31.5795 215.023 31.5795C213.773 31.5795 212.958 32.4972 212.958 33.8438C212.958 35.2131 213.762 36.0852 215.077 36.0852ZM213.981 33.4062C214.012 32.8494 214.424 32.3807 215.038 32.3807C215.629 32.3807 216.026 32.8125 216.032 33.4062H213.981ZM219.82 36.0852C220.837 36.0852 221.536 35.5881 221.717 34.8295L220.757 34.7216C220.618 35.0909 220.277 35.2841 219.834 35.2841C219.169 35.2841 218.729 34.8466 218.72 34.0994H221.76V33.7841C221.76 32.2528 220.839 31.5795 219.766 31.5795C218.516 31.5795 217.7 32.4972 217.7 33.8438C217.7 35.2131 218.504 36.0852 219.82 36.0852ZM218.723 33.4062C218.754 32.8494 219.166 32.3807 219.78 32.3807C220.371 32.3807 220.768 32.8125 220.774 33.4062H218.723ZM224.66 36H225.714V34.0341H226.827C228.171 34.0341 228.893 33.2273 228.893 32.108C228.893 30.9972 228.18 30.1818 226.842 30.1818H224.66V36ZM225.714 33.1676V31.0625H226.68C227.469 31.0625 227.819 31.4886 227.819 32.108C227.819 32.7273 227.469 33.1676 226.685 33.1676H225.714ZM230.791 30.1818H229.763V36H230.791V30.1818ZM233.104 36.0881C233.789 36.0881 234.198 35.767 234.386 35.4006H234.42V36H235.408V33.0795C235.408 31.9261 234.468 31.5795 233.636 31.5795C232.718 31.5795 232.013 31.9886 231.786 32.7841L232.746 32.9205C232.849 32.6222 233.138 32.3665 233.641 32.3665C234.119 32.3665 234.38 32.6108 234.38 33.0398V33.0568C234.38 33.3523 234.07 33.3665 233.3 33.4489C232.454 33.5398 231.644 33.7926 231.644 34.7756C231.644 35.6335 232.272 36.0881 233.104 36.0881ZM233.371 35.3324C232.942 35.3324 232.636 35.1364 232.636 34.7585C232.636 34.3636 232.979 34.1989 233.44 34.1335C233.71 34.0966 234.249 34.0284 234.383 33.9205V34.4347C234.383 34.9205 233.991 35.3324 233.371 35.3324ZM237.471 33.4432C237.471 32.8125 237.852 32.4489 238.394 32.4489C238.925 32.4489 239.244 32.7983 239.244 33.3807V36H240.272V33.2216C240.275 32.1761 239.678 31.5795 238.778 31.5795C238.124 31.5795 237.675 31.892 237.477 32.3778H237.425V31.6364H236.442V36H237.471V33.4432Z" fill="#175FFF"/>
<mask id="mask2" mask-type="alpha" maskUnits="userSpaceOnUse" x="92" y="4" width="50" height="50">
<path d="M116.738 4C117.033 17.5229 127.94 28.4306 141.463 28.7255V28.7377C127.94 29.0326 117.033 39.9403 116.738 53.4632H116.725C116.431 39.9403 105.523 29.0326 92 28.7377V28.7255C105.523 28.4306 116.431 17.5229 116.725 4H116.738Z" fill="#FE5E41"/>
</mask>
<g mask="url(#mask2)">
<path d="M116.738 4C117.033 17.5229 127.94 28.4306 141.463 28.7255V28.7377C127.94 29.0326 117.033 39.9403 116.738 53.4632H116.725C116.431 39.9403 105.523 29.0326 92 28.7377V28.7255C105.523 28.4306 116.431 17.5229 116.725 4H116.738Z" fill="#BDD2FF"/>
<path opacity="0.2" d="M105.606 25.1857L105.016 25.3601C105.408 26.0848 105.898 26.0334 105.302 26.3661C105.606 25.1857 103.469 25.6349 103.798 24.4745L103.406 24.6056C103.497 24.6186 103.482 24.6877 103.576 24.7229C103.425 24.7838 103.335 24.7932 103.266 24.7779L105.838 20.5224C106.042 20.7488 105.372 21.4495 105.947 21.7722C106.206 21.8801 106.473 21.8521 106.427 21.6317C106.515 21.8252 106.583 22.0432 106.693 22.2344C106.839 22.3317 106.954 22.1395 106.786 22.0445C106.99 22.2708 107.214 22.4726 107.437 22.6743L107.457 22.6497C107.436 22.8771 107.503 23.298 107.546 23.4961C107.838 23.488 107.527 23.3179 107.654 23.2371L107.891 23.7753C108.238 23.6488 108.073 23.1482 107.762 22.9781C108.311 22.6278 108.347 22.7591 108.413 22.9549C108.481 23.173 108.558 23.4802 109.189 23.4816C109.086 23.3573 108.98 23.2107 108.877 23.0864C109.513 22.7045 109.691 23.1137 110.381 23.0413C110.145 23.1561 108.88 23.3338 109.166 23.9118C109.347 23.9154 109.537 24.0081 109.665 24.3774C109.898 24.0153 110.104 24.2639 110.397 24.4809L110.682 23.9781C110.945 24.3335 110.765 24.5549 110.825 24.909C111.251 25.112 111.553 24.7651 111.841 24.5097C112.527 24.8207 111.043 24.8411 111.732 25.3994C112.377 25.5345 112.624 25.959 113.077 26.6321C113.557 26.6944 113.198 26.2816 113.419 26.236L113.504 26.8351C113.598 26.8703 113.628 26.732 113.666 26.6605C113.857 26.9783 113.381 27.1633 113.737 27.5538C113.53 28.1609 115.109 27.3199 115.274 28.2485C115.492 28.1806 115.394 27.898 115.559 27.7457C116.053 28.5946 116.012 28.4188 116.311 29.3333L117.031 29.3254C116.414 29.4576 116.649 30.1986 116.848 30.8083C116.61 30.9008 116.394 30.9909 116.263 31.0272L116.786 31.7156C116.917 31.6793 116.94 31.4742 116.957 31.2022C116.986 31.2667 116.993 31.3335 117 31.4003C117.357 31.363 117.408 30.9972 117.393 30.6385C117.24 30.6771 117.111 30.7357 116.959 30.7966C116.962 30.391 117.009 29.9807 117.228 29.71C117.238 29.7991 117.292 29.8835 117.37 29.9879C117.381 29.8742 117.394 29.7827 117.436 29.7558C117.5 29.7265 117.492 29.8625 117.535 30.0606L118.028 29.6037L117.94 29.8381L119.042 30.0379C119.112 30.2782 119.182 30.5186 119.233 30.7835C119.305 31.0461 119.353 31.2888 119.473 31.5691C119.712 32.1295 119.919 32.6032 120.297 32.9914C120.388 32.7793 120.53 32.6293 120.721 32.5192C120.912 32.4091 121.172 32.3142 121.423 32.1303C120.958 32.2016 120.781 32.0174 120.548 31.7266C120.339 31.4557 120.052 31.0805 119.65 30.8974C120.074 31.0781 120.16 30.8214 120.099 30.6702C120.482 31.1029 120.819 31.5181 121.108 31.9156C121.456 31.5863 121.69 31.8772 122.243 31.9993C121.11 32.3658 122.635 32.9491 122.813 33.3583C123.011 33.315 123.205 33.2271 123.218 33.1357C123.251 33.0197 123.101 32.8778 122.721 32.6924C123.107 32.7195 123.297 32.8122 123.353 32.9189C123.431 33.0233 123.378 33.1639 123.301 33.2846C123.193 33.5437 122.967 33.7475 123.698 33.851C123.553 33.7537 123.415 33.7231 123.563 33.6399C123.558 33.7982 123.824 33.973 124.152 34.0962C124.458 34.2218 124.828 34.3181 124.93 34.2173L124.785 34.12C125.093 34.2678 125.453 34.4778 125.815 34.7101C125.985 34.8274 126.155 34.9447 126.323 35.0397C126.396 35.0995 126.47 35.1593 126.542 35.1969L126.752 35.265C126.776 35.2849 126.825 35.3248 126.828 35.3471C126.974 35.6695 126.911 35.9239 126.258 35.9248C126.441 35.9506 127.858 35.9372 128.105 35.9338L126.36 36.2519L125.961 36.3162L125.785 36.3571C125.696 36.3665 125.582 36.3559 125.469 36.3453C125.038 36.3228 124.586 36.3027 124.109 36.2626C124.519 36.3097 125.092 36.4072 125.757 36.5177C125.917 36.5459 126.078 36.5741 126.239 36.6023C126.352 36.6129 126.444 36.6259 126.558 36.6365C126.785 36.6577 126.99 36.6812 127.195 36.7047C128.038 36.7965 128.763 36.8332 128.855 36.6433C129.139 36.7712 129.43 36.966 129.339 37.1781C129.125 37.0655 127.657 36.814 127.713 36.9207C128.457 37.1355 128.666 37.2036 128.854 37.274C129.042 37.3444 129.278 37.4547 129.866 37.6859C129.7 37.6132 129.31 37.5415 128.971 37.532C128.655 37.5201 128.432 37.5435 128.577 37.6408C128.735 37.6468 129.931 37.8817 129.993 37.8302C129.711 37.9274 129.47 37.9976 129.275 38.0632C129.334 37.9893 130.285 38.25 130.734 38.4507C130.593 38.3978 130.694 38.4999 130.844 38.6418C130.918 38.7016 130.994 38.7837 131.068 38.8435C131.01 38.9396 130.928 39.0158 130.866 39.0673L130.867 38.8645L130.863 38.82C130.86 38.7977 130.86 38.7977 130.836 38.7778L130.715 38.7003C130.74 38.7203 130.764 38.7402 130.789 38.7602L130.814 38.7801L130.794 38.8047L130.751 38.8317C130.712 38.8809 130.669 38.9078 130.607 38.9594C130.503 39.0379 130.394 39.0718 130.285 39.1058C130.044 39.176 129.755 39.2064 129.485 39.2121C128.901 39.2283 128.313 39.1999 127.879 39.3579C128.225 39.4343 129.523 39.7936 129.304 40.0643C128.914 39.9926 128.012 39.7718 126.946 39.4783C126.876 39.463 126.807 39.4477 126.738 39.4325C126.622 39.3996 126.504 39.3444 126.388 39.3116C126.153 39.2235 125.896 39.1378 125.662 39.0498C125.24 38.8914 124.793 38.713 124.347 38.5346C123.525 38.2154 122.891 37.9666 122.516 37.8257L123.139 38.1882C122.717 38.0298 122.32 37.8913 121.92 37.7305C122.418 37.9711 123.084 38.3066 123.864 38.6528C124.266 38.8358 124.668 39.0189 125.114 39.1973C125.233 39.2524 125.349 39.2853 125.445 39.3428L125.61 39.4155C125.635 39.4355 125.657 39.4332 125.679 39.4308L125.726 39.4484C125.867 39.5012 126.03 39.5517 126.17 39.6045C127.36 39.9978 128.422 40.2468 129.036 40.2951C129.037 40.5202 129.375 40.5297 128.939 40.6655C129.165 40.8895 129.678 40.8358 129.807 40.7772C129.58 40.9811 129.372 41.1381 129.163 41.2951C128.781 41.0875 128.393 41.038 128.002 40.9664C127.637 40.9146 127.199 40.8253 126.862 40.613C127.23 40.687 127.571 40.7188 127.892 40.7752C128.211 40.8094 128.53 40.8435 128.847 40.8554C128.464 40.6477 127.766 40.4282 127.023 40.2133C126.652 40.117 126.279 39.9985 125.956 39.9198C125.632 39.8411 125.336 39.8046 125.155 39.801C125.211 39.9077 125.663 40.1307 126.092 40.3559C126.543 40.5789 126.992 40.7795 127.137 40.8769C126.737 40.7161 125.781 40.6137 125.909 40.758C126.188 40.8413 126.467 40.9247 126.723 41.0104C126.686 41.0818 126.55 41.0736 126.389 41.0454C126.182 40.9996 125.949 40.9338 125.715 40.8458C125.251 40.7143 124.856 40.5981 124.911 40.9076C124.866 40.9122 124.873 40.9791 124.883 41.0682C124.887 41.1127 124.914 41.1549 124.919 41.1995C124.923 41.244 124.928 41.2886 124.93 41.3108C124.947 41.4668 124.889 41.5629 124.643 41.3635C124.448 41.0011 123.601 40.2341 122.691 39.4963C122.445 39.2969 122.223 39.1175 122.002 38.938C121.758 38.7609 121.534 38.5592 121.315 38.402C120.874 38.0653 120.507 37.7885 120.291 37.6536C120.293 37.6759 120.378 37.8471 120.402 38.0698C120.445 38.268 120.449 38.5153 120.512 38.6888C120.631 38.9691 121.077 39.3503 121.586 39.7022C122.076 40.0787 122.606 40.406 122.679 40.6686C122.479 40.4868 122.001 40.2217 121.836 40.1489C121.692 40.2766 122.483 40.7342 121.747 40.5861C121.068 39.9141 120.5 40.5141 120.986 39.9903C120.613 39.8717 120.502 39.8834 120.37 39.9197C120.239 39.956 120.11 40.0145 119.744 39.9628C119.746 39.76 119.37 39.3941 118.993 39.0281C118.62 38.6845 118.246 38.3408 118.009 38.2305C118.094 38.4017 118.046 38.5869 118.033 38.6784C117.128 38.6381 116.541 38.8348 115.676 38.7453C115.578 38.8906 115.14 39.0042 115.281 39.2821C115.201 39.1554 115.133 38.9373 114.903 38.8939C114.703 39.14 114.842 39.1705 114.938 39.228C115.056 39.2831 115.175 39.3383 115.027 39.6465C115.034 39.2855 114.563 39.0871 114.198 38.8326C114.168 38.543 114.371 38.5443 114.608 38.6546C114.842 38.7426 115.066 38.9443 115.216 39.0863C115.243 38.7006 115.156 38.3043 114.847 37.9314C114.538 37.5585 114.006 37.2089 113.347 36.9401C112.3 36.622 113.171 37.409 112.954 37.2741C112.568 37.2469 112.242 37.146 111.934 36.9981C111.626 36.8503 111.313 36.6579 111.022 36.4632C110.734 36.2907 110.446 36.1183 110.142 36.015C109.861 35.9093 109.566 35.8952 109.306 35.99C109.263 36.2197 109.563 36.5036 109.885 36.7851C110.205 37.0443 110.525 37.3035 110.682 37.5122C111.104 37.6707 111.233 37.6121 111.359 37.5313C111.486 37.4505 111.588 37.3497 111.818 37.3932C111.689 37.4517 111.582 37.5079 111.478 37.5864C111.838 37.7964 112.306 37.9725 112.428 37.8471C112.383 38.0546 111.861 38.0192 111.268 37.9462C110.675 37.8733 109.945 37.7921 109.808 37.9866C109.379 37.7614 108.767 37.5102 108.563 37.2839L109.028 37.4154C108.846 37.1867 108.466 37.0013 108.111 36.8359C107.756 36.6704 107.45 36.5448 107.532 36.4687C107.014 36.2528 106.377 35.9817 105.792 35.7727C105.208 35.5638 104.676 35.4393 104.505 35.5248L105.616 36.2416C105.257 36.0316 105.398 35.8816 105.988 36.1351C105.564 35.9544 105.652 36.1478 105.643 36.2838C105.635 36.4198 105.551 36.4737 104.458 35.9351C104.33 35.7909 104.203 35.6466 104.097 35.5C103.512 35.2911 102.735 34.9672 101.965 34.7101C101.432 34.5634 101.12 34.5961 101.304 34.847C100.725 34.4798 100.747 34.4775 100.745 34.4552C100.742 34.4329 100.76 34.3861 99.9618 33.8617C100.373 34.1339 100.585 34.2242 100.724 34.2548C100.862 34.2853 100.877 34.2161 100.893 34.147C101.214 34.2034 101.508 34.2176 101.812 34.3209C102.113 34.4019 102.399 34.5521 102.724 34.8558C102.135 34.3996 102.264 34.341 102.44 34.3001C102.616 34.2591 102.839 34.2358 102.668 33.8934C103.008 34.128 103.049 34.3038 103.679 34.3053C103.822 34.3804 104.034 34.4707 104.155 34.5482C104.177 34.5458 104.177 34.5458 104.177 34.5458L104.18 34.5681C104.274 34.6033 104.276 34.6256 104.18 34.5681C104.142 34.6396 104.198 34.7463 104.324 34.8683C105.535 35.462 106.565 35.6242 107.273 35.9328C107.538 35.8825 106.77 35.6477 106.68 35.432L107.743 35.9061C107.47 35.6645 107.498 35.5039 107.438 35.3526C107.377 35.2014 107.249 35.0571 106.526 34.8177L107.507 34.94C107.802 34.7514 108.571 34.7834 109.253 35.0498C109.453 35.0288 109.855 35.2118 110.114 35.3198C110.373 35.4278 110.494 35.5052 110.159 35.3151L111.853 35.7906L111.819 35.6816C112.548 35.7628 113.387 36.0352 114.148 36.2031C114.886 36.3734 115.776 36.4829 116.216 36.1665C116.359 36.2416 116.502 36.3167 116.687 36.3648C116.734 36.3825 116.779 36.3778 116.826 36.3954C116.848 36.3931 116.872 36.413 116.895 36.4107L116.917 36.4083C116.962 36.4037 117.006 36.399 117.048 36.372C117.059 36.2583 117.07 36.1446 117.08 36.0309C117.132 36.0931 117.214 36.0169 117.276 35.9654C117.338 35.9138 117.358 35.8892 117.468 36.0803C117.328 35.5996 117.321 35.5328 117.439 35.588C117.535 35.6454 117.779 35.8226 117.747 35.7358L118.274 36.2436C118.385 36.232 118.671 36.3821 119.191 36.6203L119.827 37.0942C120.209 37.3019 120.293 37.248 120.279 37.1143C120.267 37.003 120.137 36.8365 120.345 36.8823C119.987 36.6945 119.992 36.7391 120.137 36.8365C119.771 36.5596 119.672 36.4799 119.788 36.5127C119.902 36.5233 120.186 36.6513 120.536 36.7722C120.887 36.8931 121.262 37.0339 121.491 37.0774C121.699 37.1232 121.761 37.0716 121.379 36.864C121.892 37.0353 121.839 36.9509 121.577 36.8207C121.555 36.823 121.533 36.8253 121.486 36.8077C121.486 36.8077 121.483 36.7855 121.506 36.7831C121.338 36.6881 121.148 36.5954 120.956 36.4804C121.24 36.6083 121.454 36.721 121.528 36.7808C121.617 36.7715 121.867 36.7903 122.302 36.8573L120.92 36.3491C120.942 36.3468 120.942 36.3468 120.964 36.3445C120.491 36.1239 121.703 36.5148 122.734 36.9021C123.009 36.9409 123.352 36.9949 123.742 37.0666C122.597 36.6687 122.847 36.6876 123.07 36.6642C123.183 36.6748 123.248 36.6456 121.951 36.3085C123.107 36.5927 122.372 36.2419 124.581 36.686C124.28 36.605 124.094 36.5568 124.144 36.5967C123.722 36.4383 123.324 36.2998 123.801 36.3398L122.191 36.0132C122.784 36.0862 123.352 36.1392 123.874 36.1746C122.763 35.8857 122.236 35.8058 121.304 35.7233C121.96 35.7447 122 35.6955 122.064 35.6662C122.129 35.6369 122.215 35.6053 122.703 35.5316L121.932 35.4774C121.883 35.4375 122.058 35.3965 122.143 35.3427C122.227 35.2888 122.223 35.2442 121.882 35.2124C121.012 35.0784 120.63 34.8707 120.176 34.6255C119.959 34.4906 119.72 34.358 119.439 34.2524C119.18 34.1445 118.878 34.0634 118.584 34.0492C119.142 33.7881 118.939 33.7868 118.717 33.8101C118.472 33.8358 118.254 33.9037 118.537 33.6037C118.304 33.7408 118.131 33.804 118.062 34.0138C118.031 33.9271 117.982 33.8872 117.912 33.8719C117.888 33.852 117.843 33.8567 117.821 33.859L117.776 33.8637C117.752 33.8437 117.707 33.8484 117.683 33.8285C117.424 33.7205 117.231 33.6055 117.185 33.16C116.976 33.317 117.135 33.548 116.986 33.6312C116.955 33.5444 116.887 33.3264 116.738 33.4095C116.589 33.4927 116.717 33.6369 116.78 33.8105C116.125 33.3612 116.436 32.6755 116.774 32.0321C116.241 32.1104 116.114 31.9662 116.1 31.4046C115.864 31.5194 115.537 31.6213 115.908 31.9426C115.649 31.8347 114.27 31.3487 114.533 30.8483C114.384 30.9314 114.177 30.6828 114.146 30.5961C113.596 30.2934 113.509 30.325 113.019 29.9485L113.222 29.9497C113.373 29.2359 112.866 29.5592 112.492 29.2156L112.477 29.2847C111.244 29.1212 112.181 28.8204 110.932 28.726L111.211 28.3815C111.595 27.5306 110.079 28.32 109.697 27.6845L110.026 27.6049C109.888 27.1465 108.507 28.147 108.136 28.0507C108.027 28.0847 108.177 28.2266 108.233 28.3333C107.123 28.2695 108.425 27.7953 107.898 27.2875C107.625 27.4737 107.617 28.0376 107.188 27.8123C107.012 27.8533 106.856 27.4417 106.634 27.0372C106.411 26.6327 106.122 26.2351 105.676 26.2818C105.936 26.187 106.194 26.0699 106.023 25.7275C105.846 25.5434 105.414 25.4986 105.066 25.4C104.695 25.3037 104.382 25.1113 104.449 24.6764C104.36 24.6858 104.296 24.7151 104.256 24.7643C104.056 24.3574 103.464 23.6538 103.573 23.1919C103.362 23.3266 103.184 23.3453 103.045 23.3148L98.8592 22.2673L104.562 20.8138C105.308 20.623 106.235 22.3725 106.593 21.2766L107.674 21.7037L107.682 21.5678C108.418 21.7158 108.571 22.1051 108.725 22.4943C108.923 22.451 108.84 22.3021 108.855 22.233C109.965 22.2968 110.064 22.3765 110.723 23.2982L110.951 22.8915C111.12 23.2117 112.642 22.6918 113.512 23.4788C113.508 23.4343 113.521 23.3428 113.467 23.2584C113.961 23.6795 114.739 23.5755 115.37 23.5769C116 23.5784 116.507 23.6829 116.526 24.5141L117.195 25.097C116.167 24.9571 117.181 25.8191 116.7 25.9596C117.058 26.1473 117.827 25.7514 117.378 25.5508L117.294 25.6047C117.316 24.7466 118.6 25.6029 118.7 25.052C119.186 25.1811 119.668 25.2657 120.147 25.3281C120.399 25.3692 120.627 25.3904 120.877 25.4093L121 25.509C121.044 25.5043 121.066 25.502 121.113 25.5196C121.18 25.5126 121.249 25.5279 121.316 25.5209C121.833 25.5117 122.21 25.4497 122.595 25.4769C122.735 25.7325 122.849 25.9682 122.964 26.2038L123.35 26.231C123.334 26.0751 122.995 25.6376 122.792 25.6364C122.702 25.4206 122.85 25.5403 123.071 25.7197C123.293 25.8992 123.59 26.1607 123.667 26.2428C123.811 26.1151 123.493 25.8782 123.247 25.6788C122.979 25.4817 122.757 25.3023 122.802 25.2976L123.014 25.388L123.068 25.4724C123.508 25.809 123.885 26.1749 124.177 26.1669C124.185 26.0309 123.697 25.6766 123.717 25.652C123.643 25.5922 123.641 25.5699 123.784 25.645C123.873 25.6357 123.962 25.6263 124.049 25.5947C124.32 25.8141 124.546 26.0381 124.77 26.2398C125.413 26.5777 125.218 26.2154 126.017 26.9648C125.417 26.3972 125.677 26.3023 126.12 26.2334C126.541 26.1667 127.165 26.1014 126.852 25.909C127.477 26.0687 128.065 26.0971 127.92 25.9997C127.911 25.9106 127.716 25.7734 127.497 25.6162C127.852 25.7816 129.509 26.3286 128.974 25.9568C127.816 25.6503 127.253 25.4391 126.898 25.2736C126.614 25.1457 126.444 25.0284 126.161 24.9005C125.899 24.7703 125.524 24.6294 124.853 24.4521C125.596 24.667 125.517 24.5626 125.506 24.4512C125.501 24.4067 125.519 24.3598 125.652 24.3458C125.786 24.3318 126.038 24.3729 126.547 24.4997C126.31 24.3894 126.08 24.346 125.806 24.3072C125.532 24.2684 125.213 24.2342 124.865 24.1356C125.122 24.0185 124.667 23.751 124.242 23.5703C124.03 23.4799 123.818 23.3896 123.606 23.2992C123.416 23.2065 123.295 23.1291 123.217 23.0247C123.303 22.9931 123.435 22.9568 123.566 22.9205C123.697 22.8842 123.826 22.8257 123.906 22.7272C123.481 22.7493 123.102 22.789 122.775 22.8909C122.77 22.8463 122.957 22.6917 123.056 22.5686C123.156 22.4456 123.147 22.3565 122.819 22.4583C122.948 22.3998 123.164 22.3096 123.13 22.2005C122.876 22.1371 122.691 22.089 122.501 21.9963C122.217 21.8684 121.926 21.6737 121.66 21.4989C121.106 21.1516 120.589 20.7329 120.055 20.361C118.983 19.5951 117.81 18.9299 116.326 18.9503C116.789 18.8567 116.595 18.7195 116.353 18.5646C116.536 18.5905 116.543 18.2295 116.661 18.0595C116.255 18.057 115.827 18.0568 115.424 18.0766C115.517 17.4588 114.396 17.5087 114.54 16.9531L114.813 17.1947C114.685 16.3975 116.056 16.1637 116.4 15.362C116.472 15.8274 116.912 15.7362 117.36 15.7117C117.83 15.685 118.308 15.725 118.425 16.4109C118.69 16.3606 118.414 16.0967 118.603 15.9643C118.674 16.4298 118.854 16.6362 119.382 16.7384L119.371 16.627C120.533 17.4059 121.253 17.398 122.718 18.0551L122.39 18.3598C122.698 18.5076 122.847 18.4245 123.028 18.4281C123.016 19.1725 122.212 17.9506 122.113 18.7266C122.538 18.4794 123.045 18.8091 123.528 19.1188C123.769 19.2736 124.008 19.4062 124.265 19.4919C124.571 19.6175 124.87 19.6762 125.128 19.5591C125.468 19.7937 125.317 19.8546 125.185 19.8909C125.056 19.9494 124.927 20.008 125.22 20.225C125.332 20.2133 125.463 20.177 125.597 20.163C125.564 20.2791 125.531 20.3951 125.473 20.4912C125.902 20.7165 126.417 20.685 126.655 20.5925C126.537 20.5374 126.424 20.324 126.326 20.2442C126.766 20.3558 127.139 20.6994 127.439 20.9833C127.739 21.2671 127.948 21.538 128.089 21.5908L127.28 21.1801C127.457 21.3643 127.656 21.5461 127.875 21.7032C128.074 21.885 128.274 22.0668 128.495 22.2463C128.916 22.6075 129.381 22.9641 129.802 23.3254C130.643 24.0479 131.396 24.7797 131.585 25.3003L131.119 25.1465C131.272 25.5358 131.561 25.7082 131.945 25.9382C132.302 26.1259 132.736 26.3957 133.122 26.8507L133.188 26.8437C133.102 26.8753 133.084 26.9222 133.091 26.989C132.94 27.0499 132.905 27.1437 132.961 27.2504C133.161 27.2294 133.403 27.3842 133.62 27.5191C133.836 27.6541 134.029 27.769 134.274 27.7433C134.058 27.8335 133.929 27.8921 133.82 27.926C133.733 27.9576 133.644 27.967 133.553 27.954C133.461 27.9411 133.37 27.9282 133.234 27.9199C133.211 27.9222 133.165 27.9046 133.12 27.9093C133.053 27.9163 133.006 27.8987 132.917 27.908C132.759 27.9021 132.578 27.8985 132.376 27.8972L132.626 28.1412C131.969 28.0975 131.759 28.0294 131.097 28.1663C131.909 28.1714 131.345 28.5908 132.336 28.5994C132.158 29.046 131.485 29.0715 130.968 29.0806C130.429 29.0921 130.041 29.0427 130.406 29.5223C129.587 29.2254 129.682 29.0578 129.922 28.9876C130.16 28.8951 130.541 28.8777 130.267 28.8388C130.209 28.7099 129.905 28.6066 129.561 28.5525C129.218 28.4984 128.877 28.4666 128.745 28.5029C128.567 28.5216 128.751 28.7725 128.868 29.0305C128.963 29.2908 128.996 29.6026 128.437 29.6387C128.548 29.627 128.622 29.6869 128.733 29.6752C128.656 29.7959 128.379 29.7348 128.083 29.6983C127.808 29.6595 127.532 29.5985 127.441 29.8106C127.005 29.5185 126.847 29.5126 126.666 29.509C126.506 29.4808 126.343 29.4303 125.967 29.0644C126.174 29.1102 126.382 29.156 126.587 29.1795C126.794 29.2253 126.999 29.2489 127.182 29.2748C126.997 29.2266 126.763 29.1386 126.504 29.0306C126.267 28.9203 126.03 28.81 125.746 28.6821C125.251 28.4639 124.829 28.3054 124.506 28.4518C124.681 28.6137 125.112 28.8612 125.396 28.9891C125.338 29.0852 125.153 29.0371 124.99 28.9866C124.827 28.9361 124.664 28.8856 124.562 28.9864C124.852 29.3839 125.22 29.4579 125.675 29.5003C125.902 29.5215 126.129 29.5427 126.406 29.6038C126.544 29.6344 126.683 29.6649 126.823 29.7177C126.964 29.7705 127.105 29.8234 127.248 29.8984C127.232 29.9676 127.121 29.9793 126.96 29.9511C126.8 29.9229 126.59 29.8548 126.427 29.8043C126.101 29.7033 125.921 29.6997 126.437 30.1185C125.751 29.5824 125.481 29.5882 125.147 29.6232C124.835 29.6559 124.387 29.6803 123.752 29.2064L124.026 29.6731C123.836 29.5804 123.449 29.3282 123.175 29.2894C123.401 29.5134 123.65 29.7351 123.92 29.9544C123.415 29.6471 123.083 29.7044 122.685 29.7687C122.308 29.8306 121.912 29.9172 121.485 29.7142C122.358 29.8705 122.435 29.7498 122.372 29.5763C122.309 29.4027 122.147 29.1495 122.43 29.0523C121.931 28.8117 121.657 28.7729 121.434 28.7963C121.214 28.8419 121.07 28.9696 120.903 29.0997C120.736 29.2297 120.548 29.3621 120.24 29.4393C120.196 29.444 120.174 29.4463 120.129 29.451C120.107 29.4534 120.085 29.4557 120.042 29.4826C119.975 29.4896 119.931 29.4943 119.864 29.5013C119.728 29.493 119.568 29.4648 119.405 29.4144C119.594 29.5071 120.204 29.308 119.931 29.0664C119.642 29.0968 119.245 29.1833 119.017 29.365C118.083 29.0574 119.269 28.9782 118.917 28.6322C118.467 29.0623 118.501 28.3155 118.114 28.0633L118.023 28.4783C116.875 28.486 117.947 27.5404 116.898 27.6279L117.213 28.2704L116.734 28.0053L116.719 28.5023C116.262 28.0097 116.064 28.053 115.478 28.0469C115.675 27.7786 115.599 27.2686 115.135 27.1371C114.745 27.2905 115.204 27.5802 114.547 27.3338C114.624 27.6409 114.709 28.0149 115.104 27.7033C115.096 27.8393 115.181 28.0104 115.173 28.1464C114.741 28.3268 114.276 27.9702 114.022 27.9068C114.113 27.9197 114.249 27.928 114.311 27.8764C114.033 27.5903 113.756 27.3041 113.503 27.0379C113.311 27.148 113.397 27.3192 113.48 27.4681C113.29 27.3754 113.22 27.1351 112.939 27.0294C112.909 27.3928 112.811 27.741 113.175 27.9955L112.365 27.3598C112.266 27.4828 111.763 27.6256 111.846 27.7745C111.267 27.8352 110.793 26.7589 110.034 26.816C110.027 26.7491 109.973 26.6647 109.85 26.565C109.207 26.4522 108.511 26.6828 107.897 25.9815L107.293 26.4502C106.741 26.1252 108.11 25.8691 107.198 25.3341C106.57 24.9271 106.77 25.7618 106.488 25.859C106.243 25.4568 105.842 24.643 105.061 24.9276C105.238 25.1117 105.436 25.0684 105.606 25.1857ZM109.186 23.8872C109.125 23.736 109.061 23.3374 108.83 23.4967C108.681 24.0077 108.914 23.8707 109.186 23.8872ZM118.278 30.7034C118.26 30.5252 118.077 30.4993 117.834 30.5473C117.933 30.627 118.076 30.7021 118.278 30.7034ZM108.657 35.3825C108.681 35.4024 108.681 35.4024 108.704 35.4001C109.051 35.2736 108.944 35.3298 108.657 35.3825ZM107.83 35.4466C107.64 35.3539 107.567 35.2941 107.537 35.2296C107.754 35.3645 108.008 35.4279 108.256 35.4245C108.312 35.5312 108.275 35.6027 107.83 35.4466ZM124.008 25.8468L124.111 25.9711C124.444 26.1388 124.227 26.0039 124.008 25.8468Z" fill="#578DFF"/>
</g>
<path d="M261.728 23.4946L263.111 23.0088L261.719 22.5481C259.84 21.9261 258.25 20.4464 257.38 18.46L256.927 17.4258L256.465 18.4564C255.58 20.435 254.001 21.927 252.124 22.5481L250.733 23.0088L252.116 23.4946C253.991 24.1534 255.573 25.6967 256.462 27.7858L256.922 28.8676L257.382 27.7858C258.27 25.6967 259.853 24.1534 261.728 23.4946Z" fill="white" stroke="#BDD2FF"/>
<path d="M288.561 12.9654C285.011 14.3192 282.064 17.4692 280.421 21.6606C278.779 17.4692 275.832 14.3192 272.281 12.9654C275.832 11.6897 278.779 8.6438 280.421 4.66064C282.04 8.66983 285.011 11.6897 288.561 12.9654Z" fill="#BDD2FF"/>
<path d="M147.924 46.3882C148.106 45.8706 148.894 45.8706 149.076 46.3882L149.723 48.2374C149.804 48.4689 150.036 48.6256 150.299 48.6256H152.394C152.98 48.6256 153.224 49.322 152.749 49.6419L151.055 50.7848C150.842 50.9278 150.754 51.1814 150.835 51.4128L151.482 53.2621C151.663 53.7797 151.025 54.21 150.551 53.8902L148.856 52.7473C148.644 52.6042 148.356 52.6042 148.144 52.7473L146.449 53.8902C145.975 54.21 145.337 53.7796 145.518 53.2621L146.165 51.4128C146.246 51.1814 146.158 50.9278 145.945 50.7848L144.251 49.6419C143.776 49.322 144.02 48.6256 144.606 48.6256H146.701C146.964 48.6256 147.196 48.4689 147.277 48.2374L147.924 46.3882Z" fill="#FFCC65"/>
<path d="M160.924 46.3882C161.106 45.8706 161.894 45.8706 162.076 46.3882L162.723 48.2374C162.804 48.4689 163.036 48.6256 163.299 48.6256H165.394C165.98 48.6256 166.224 49.322 165.749 49.6419L164.055 50.7848C163.842 50.9278 163.754 51.1814 163.835 51.4128L164.482 53.2621C164.663 53.7797 164.025 54.21 163.551 53.8902L161.856 52.7473C161.644 52.6042 161.356 52.6042 161.144 52.7473L159.449 53.8902C158.975 54.21 158.337 53.7796 158.518 53.2621L159.165 51.4128C159.246 51.1814 159.158 50.9278 158.945 50.7848L157.251 49.6419C156.776 49.322 157.02 48.6256 157.606 48.6256H159.701C159.964 48.6256 160.196 48.4689 160.277 48.2374L160.924 46.3882Z" fill="#FFCC65"/>
<path d="M173.924 46.3882C174.106 45.8706 174.894 45.8706 175.076 46.3882L175.723 48.2374C175.804 48.4689 176.036 48.6256 176.299 48.6256H178.394C178.98 48.6256 179.224 49.322 178.749 49.6419L177.055 50.7848C176.842 50.9278 176.754 51.1814 176.835 51.4128L177.482 53.2621C177.663 53.7797 177.025 54.21 176.551 53.8902L174.856 52.7473C174.644 52.6042 174.356 52.6042 174.144 52.7473L172.449 53.8902C171.975 54.21 171.337 53.7796 171.518 53.2621L172.165 51.4128C172.246 51.1814 172.158 50.9278 171.945 50.7848L170.251 49.6419C169.776 49.322 170.02 48.6256 170.606 48.6256H172.701C172.964 48.6256 173.196 48.4689 173.277 48.2374L173.924 46.3882Z" fill="#FFCC65"/>
<path d="M186.924 46.3882C187.106 45.8706 187.894 45.8706 188.076 46.3882L188.723 48.2374C188.804 48.4689 189.036 48.6256 189.299 48.6256H191.394C191.98 48.6256 192.224 49.322 191.749 49.6419L190.055 50.7848C189.842 50.9278 189.754 51.1814 189.835 51.4128L190.482 53.2621C190.663 53.7797 190.025 54.21 189.551 53.8902L187.856 52.7473C187.644 52.6042 187.356 52.6042 187.144 52.7473L185.449 53.8902C184.975 54.21 184.337 53.7796 184.518 53.2621L185.165 51.4128C185.246 51.1814 185.158 50.9278 184.945 50.7848L183.251 49.6419C182.776 49.322 183.02 48.6256 183.606 48.6256H185.701C185.964 48.6256 186.196 48.4689 186.277 48.2374L186.924 46.3882Z" fill="#FFCC65"/>
<path d="M199.924 46.3882C200.106 45.8706 200.894 45.8706 201.076 46.3882L201.723 48.2374C201.804 48.4689 202.036 48.6256 202.299 48.6256H204.394C204.98 48.6256 205.224 49.322 204.749 49.6419L203.055 50.7848C202.842 50.9278 202.754 51.1814 202.835 51.4128L203.482 53.2621C203.663 53.7797 203.025 54.21 202.551 53.8902L200.856 52.7473C200.644 52.6042 200.356 52.6042 200.144 52.7473L198.449 53.8902C197.975 54.21 197.337 53.7796 197.518 53.2621L198.165 51.4128C198.246 51.1814 198.158 50.9278 197.945 50.7848L196.251 49.6419C195.776 49.322 196.02 48.6256 196.606 48.6256H198.701C198.964 48.6256 199.196 48.4689 199.277 48.2374L199.924 46.3882Z" fill="#FFCC65"/>
</g>
<defs>
<filter id="filter0_d" x="117" y="0" width="179" height="160" filterUnits="userSpaceOnUse" color-interpolation-filters="sRGB">
<feFlood flood-opacity="0" result="BackgroundImageFix"/>
<feColorMatrix in="SourceAlpha" type="matrix" values="0 0 0 0 0 0 0 0 0 0 0 0 0 0 0 0 0 0 127 0"/>
<feOffset dx="4" dy="2"/>
<feGaussianBlur stdDeviation="9"/>
<feColorMatrix type="matrix" values="0 0 0 0 0.765347 0 0 0 0 0.80554 0 0 0 0 0.891667 0 0 0 0.7 0"/>
<feBlend mode="normal" in2="BackgroundImageFix" result="effect1_dropShadow"/>
<feBlend mode="normal" in="SourceGraphic" in2="effect1_dropShadow" result="shape"/>
</filter>
<linearGradient id="paint0_linear" x1="408" y1="75" x2="6.39219" y2="62.1483" gradientUnits="userSpaceOnUse">
<stop stop-opacity="0"/>
<stop offset="0.0900568"/>
<stop offset="0.891546"/>
<stop offset="1" stop-opacity="0"/>
</linearGradient>
</defs>
</svg>
